<svg width="54" height="54" viewBox="0 0 54 54" fill="none" xmlns="http://www.w3.org/2000/svg">
<path d="M53.8921 29.7139V27.4805H38.0615V52.0125H40.295V40.1351H53.8921V37.9017H40.295V29.7139H53.8921Z" fill="#FBFBFB"/>
<path d="M22.1421 40.1172C23.9512 40.1172 27.2254 40.1172 30.3612 40.1172C33.0234 40.1172 35.5874 40.1172 37.0526 40.1172V38.0535H37.0615C37.0615 38.0177 37.057 37.9865 37.057 37.9552V37.8837C36.8516 32.4342 26.7609 29.2582 21.0656 27.9003C24.8982 26.4217 31.1474 24.2464 35.239 23.9962H36.7711V21.7628H35.1363C29.8966 22.071 21.758 25.1799 18.3587 26.5647V20.5255H20.9227V18.292H13.5613V20.5255H16.1253V27.3017C13.7623 27.6457 10.5685 27.601 7.43273 25.9572C4.39525 24.3625 2.37622 20.5076 2.29135 16.1345C2.20648 11.6811 4.14064 7.88422 7.46846 5.97686C14.8924 1.71547 20.3286 5.72225 20.5564 5.89646L21.9143 4.12311C21.6418 3.91317 15.1068 -0.982526 6.35621 4.03824C2.30922 6.36101 -0.0448213 10.8949 0.0579168 16.1747C0.156188 21.3518 2.64424 25.9661 6.39641 27.936C8.9604 29.2805 11.5378 29.7094 13.7846 29.7094C14.6199 29.7094 15.3972 29.6468 16.1253 29.553V42.0201C16.1253 42.0201 16.1253 42.0603 16.1253 42.0781C16.1253 44.0123 17.9522 46.0894 21.9367 46.1519H22.1109C22.1109 46.1519 22.1377 46.1519 22.1511 46.1519H31.1161C31.1161 46.1519 31.1295 46.1519 31.134 46.1519C33.5595 46.1519 34.8325 47.0766 34.8325 47.9923C34.8325 48.9303 33.5282 49.9309 31.1116 49.9354H16.3397V52.1688H31.1161C35.0291 52.1599 37.0704 50.0604 37.066 47.9878C37.066 46.0581 35.2613 43.9855 31.326 43.9229H22.1064C19.6452 43.914 18.3587 42.9894 18.3542 42.0737C18.3542 41.1312 19.6809 40.1261 22.1421 40.1216V40.1172ZM26.2472 31.7507C31.6342 33.6357 34.6583 35.8066 34.8147 37.8837C33.5059 37.8837 31.9559 37.8837 30.3612 37.8837C27.2299 37.8837 23.9512 37.8837 22.1421 37.8837C20.5787 37.8837 19.3146 38.2188 18.3542 38.7458V29.5977C20.0516 29.9506 23.165 30.6742 26.2472 31.7507Z" fill="#FBFBFB"/>
</svg>
