<svg width="288" height="386" viewBox="0 0 288 386" fill="none" xmlns="http://www.w3.org/2000/svg">
<mask id="path-1-inside-1_1473_12188" fill="white">
<path d="M0 24C0 10.7452 10.7452 0 24 0H264C277.255 0 288 10.7452 288 24V360C288 373.255 277.255 384 264 384H24C10.7452 384 0 373.255 0 360L0 24Z"/>
</mask>
<path d="M0 24C0 10.7452 10.7452 0 24 0H264C277.255 0 288 10.7452 288 24V360C288 373.255 277.255 384 264 384H24C10.7452 384 0 373.255 0 360L0 24Z" fill="white" fill-opacity="0.1"/>
<path d="M24 0V1.2H264V0V-1.2H24V0ZM288 24H286.8V360H288H289.2V24H288ZM264 384V382.8H24V384V385.2H264V384ZM0 360H1.2L1.2 24H0H-1.2L-1.2 360H0ZM24 384V382.8C11.4079 382.8 1.2 372.592 1.2 360H0H-1.2C-1.2 373.918 10.0824 385.2 24 385.2V384ZM288 360H286.8C286.8 372.592 276.592 382.8 264 382.8V384V385.2C277.918 385.2 289.2 373.918 289.2 360H288ZM264 0V1.2C276.592 1.2 286.8 11.4079 286.8 24H288H289.2C289.2 10.0824 277.918 -1.2 264 -1.2V0ZM24 0V-1.2C10.0824 -1.2 -1.2 10.0824 -1.2 24H0H1.2C1.2 11.4079 11.4079 1.2 24 1.2V0Z" fill="url(#paint0_linear_1473_12188)" mask="url(#path-1-inside-1_1473_12188)"/>
<path d="M2 20C2 8.95431 10.9543 0 22 0L267 0C278.046 0 287 8.95431 287 20V366C287 377.046 278.046 386 267 386H22C10.9543 386 2 377.046 2 366L2 20Z" fill="url(#paint1_linear_1473_12188)" fill-opacity="0.7"/>
<path d="M30.504 229H29.64L29.64 221.356L28.056 222.508L27.576 221.848L29.64 220.348H30.504L30.504 229ZM38.4554 229H37.5914V221.356L36.0074 222.508L35.5274 221.848L37.5914 220.348H38.4554V229ZM49.2743 221.104H46.6823V229H45.8183V221.104H43.2383V220.336H49.2743V221.104ZM60.0852 229H59.2212V224.932H54.6612V229H53.7972V220.336H54.6612V224.164H59.2212V220.336H60.0852V229ZM78.7526 225.208C78.7526 226.016 78.5766 226.708 78.2246 227.284C77.8726 227.86 77.3886 228.304 76.7726 228.616C76.1566 228.92 75.4606 229.08 74.6846 229.096C73.8606 229.096 73.1246 228.908 72.4766 228.532C71.8366 228.156 71.3326 227.632 70.9646 226.96C70.6046 226.288 70.4246 225.524 70.4246 224.668C70.4246 223.812 70.6046 223.052 70.9646 222.388C71.3326 221.716 71.8366 221.192 72.4766 220.816C73.1246 220.44 73.8606 220.252 74.6846 220.252C75.4846 220.252 76.1486 220.408 76.6766 220.72C77.2126 221.024 77.5886 221.324 77.8046 221.62C78.0206 221.916 78.1846 222.156 78.2966 222.34L77.5286 222.688C77.4406 222.544 77.3126 222.356 77.1446 222.124C76.9766 221.884 76.6806 221.64 76.2566 221.392C75.8406 221.144 75.3166 221.02 74.6846 221.02C74.0286 221.02 73.4406 221.176 72.9206 221.488C72.4086 221.8 72.0086 222.232 71.7206 222.784C71.4326 223.336 71.2886 223.964 71.2886 224.668C71.2886 225.372 71.4326 226.004 71.7206 226.564C72.0086 227.116 72.4086 227.548 72.9206 227.86C73.4406 228.172 74.0286 228.328 74.6846 228.328C75.6686 228.288 76.4566 228.012 77.0486 227.5C77.6406 226.98 77.9366 226.24 77.9366 225.28H74.8406V224.512H78.7646L78.7526 225.208ZM85.7493 224.176L89.2893 229H88.1973L85.1493 224.848L84.0933 226.012V229H83.2293V220.348H84.0933V224.716L88.0293 220.336H89.2053L85.7493 224.176ZM93.6577 226.732C93.8897 227.204 94.2017 227.588 94.5937 227.884C94.9857 228.18 95.4217 228.328 95.9017 228.328C96.4777 228.328 96.9377 228.184 97.2817 227.896C97.6337 227.608 97.8097 227.224 97.8097 226.744C97.8097 226.4 97.7177 226.116 97.5337 225.892C97.3577 225.668 97.1337 225.488 96.8617 225.352C96.5897 225.216 96.2257 225.064 95.7697 224.896C95.2337 224.696 94.8017 224.508 94.4737 224.332C94.1457 224.156 93.8657 223.908 93.6337 223.588C93.4097 223.268 93.2977 222.86 93.2977 222.364C93.2977 221.708 93.5417 221.192 94.0297 220.816C94.5257 220.432 95.1537 220.24 95.9137 220.24C96.5537 220.24 97.0977 220.4 97.5457 220.72C97.9937 221.032 98.3177 221.496 98.5177 222.112L97.7257 222.388C97.6137 221.972 97.3937 221.64 97.0657 221.392C96.7457 221.136 96.3697 221.008 95.9377 221.008C95.4097 221.008 94.9817 221.132 94.6537 221.38C94.3257 221.62 94.1617 221.952 94.1617 222.376C94.1617 222.712 94.2497 222.992 94.4257 223.216C94.6097 223.432 94.8337 223.608 95.0977 223.744C95.3697 223.88 95.7297 224.032 96.1777 224.2C96.7217 224.4 97.1577 224.588 97.4857 224.764C97.8137 224.94 98.0937 225.192 98.3257 225.52C98.5577 225.84 98.6737 226.252 98.6737 226.756C98.6737 227.22 98.5577 227.628 98.3257 227.98C98.1017 228.332 97.7817 228.608 97.3657 228.808C96.9577 229 96.4777 229.096 95.9257 229.096C94.6617 229.096 93.6577 228.44 92.9137 227.128L93.6577 226.732ZM108.606 221.104H104.226V224.272H107.922V225.028H104.226V229H103.362V220.336H108.606V221.104ZM35.508 242H34.584L33.636 239.504H29.748L28.776 242H27.852L31.2 233.336H32.208L35.508 242ZM33.336 238.736L31.704 234.44L30.036 238.736H33.336ZM40.9381 233.336L40.9381 242H40.0741L40.0741 233.336H40.9381ZM59.2317 232.376L59.2317 238.484H58.3317V237.44H56.6157V236.708H58.3317V235.472H56.6277V234.74H58.3317V232.376H59.2317ZM59.2317 239.108V242.876H58.3317V239.84H52.6077V239.108H59.2317ZM56.7237 234.188H55.4517C55.6997 234.404 55.8957 234.652 56.0397 234.932C56.1837 235.204 56.2557 235.5 56.2557 235.82C56.2557 236.268 56.1517 236.668 55.9437 237.02C55.7357 237.364 55.4437 237.636 55.0677 237.836C54.6917 238.028 54.2677 238.124 53.7957 238.124C53.3397 238.124 52.9317 238.028 52.5717 237.836C52.2117 237.636 51.9277 237.364 51.7197 237.02C51.5197 236.668 51.4197 236.268 51.4197 235.82C51.4197 235.508 51.4877 235.212 51.6237 234.932C51.7677 234.652 51.9597 234.404 52.1997 234.188H50.9397V233.444H53.3877V232.388H54.2757V233.444H56.7237V234.188ZM52.2597 235.82C52.2597 236.284 52.4037 236.664 52.6917 236.96C52.9797 237.256 53.3477 237.404 53.7957 237.404C54.2677 237.404 54.6557 237.256 54.9597 236.96C55.2637 236.664 55.4157 236.284 55.4157 235.82C55.4157 235.348 55.2637 234.96 54.9597 234.656C54.6557 234.352 54.2677 234.2 53.7957 234.2C53.3477 234.2 52.9797 234.352 52.6917 234.656C52.4037 234.96 52.2597 235.348 52.2597 235.82ZM64.171 232.964H68.971V234.092H71.299V232.376H72.199V238.592H71.299V236.792H68.971V237.572H64.171V232.964ZM68.971 243.02C68.491 243.02 68.063 242.924 67.687 242.732C67.311 242.548 67.015 242.288 66.799 241.952C66.591 241.608 66.487 241.22 66.487 240.788C66.487 240.356 66.591 239.972 66.799 239.636C67.015 239.292 67.311 239.028 67.687 238.844C68.063 238.652 68.491 238.556 68.971 238.556C69.459 238.556 69.891 238.652 70.267 238.844C70.651 239.028 70.947 239.292 71.155 239.636C71.371 239.972 71.479 240.356 71.479 240.788C71.479 241.22 71.371 241.608 71.155 241.952C70.947 242.288 70.651 242.548 70.267 242.732C69.891 242.924 69.459 243.02 68.971 243.02ZM68.971 242.252C69.451 242.252 69.843 242.116 70.147 241.844C70.459 241.572 70.615 241.22 70.615 240.788C70.615 240.356 70.459 240.004 70.147 239.732C69.843 239.46 69.451 239.324 68.971 239.324C68.499 239.324 68.111 239.46 67.807 239.732C67.503 240.004 67.351 240.356 67.351 240.788C67.351 241.22 67.503 241.572 67.807 241.844C68.111 242.116 68.499 242.252 68.971 242.252ZM68.095 236.828V233.696H65.047V236.828H68.095ZM71.299 236.06V234.836H68.971V236.06H71.299ZM82.1063 237.8H81.2183V234.164H76.9703V233.432H82.1063V237.8ZM83.6663 232.376H84.5543V236.792H86.2703V237.548H84.5543V242.516H83.6663V232.376ZM82.7303 240.308H76.5743V239.588H78.6863V236.54H79.5743V239.588H82.7303V240.308ZM103.155 232.388V235.856H104.727V236.612H103.155V239.66H102.255V232.388H103.155ZM97.7793 239.324V241.892H103.407V242.636H96.8913V239.324H97.7793ZM101.115 234.428H99.8433C100.091 234.644 100.287 234.892 100.431 235.172C100.575 235.444 100.647 235.74 100.647 236.06C100.647 236.508 100.543 236.908 100.335 237.26C100.127 237.604 99.8353 237.876 99.4593 238.076C99.0833 238.268 98.6593 238.364 98.1873 238.364C97.7313 238.364 97.3233 238.268 96.9633 238.076C96.6033 237.876 96.3193 237.604 96.1113 237.26C95.9113 236.908 95.8113 236.508 95.8113 236.06C95.8113 235.748 95.8793 235.452 96.0153 235.172C96.1593 234.892 96.3513 234.644 96.5913 234.428H95.3313V233.684H97.7793V232.388H98.6673V233.684H101.115V234.428ZM96.6513 236.06C96.6513 236.524 96.7953 236.904 97.0833 237.2C97.3713 237.496 97.7393 237.644 98.1873 237.644C98.6593 237.644 99.0473 237.496 99.3513 237.2C99.6553 236.904 99.8073 236.524 99.8073 236.06C99.8073 235.588 99.6553 235.2 99.3513 234.896C99.0473 234.592 98.6593 234.44 98.1873 234.44C97.7393 234.44 97.3713 234.592 97.0833 234.896C96.7953 235.2 96.6513 235.588 96.6513 236.06ZM114.959 236.528V233.48H109.307V232.736H115.871V236.528H117.491V237.272H113.171V238.988H116.015V242.888H115.103V239.732H109.367V238.988H112.283V237.272H107.975V236.528H114.959ZM30.576 250.176L34.116 255H33.024L29.976 250.848L28.92 252.012V255H28.056V246.348H28.92V250.716L32.856 246.336H34.032L30.576 250.176ZM41.8712 254.328C42.5272 254.328 43.1112 254.172 43.6232 253.86C44.1352 253.548 44.5352 253.116 44.8232 252.564C45.1112 252.004 45.2552 251.372 45.2552 250.668C45.2552 249.964 45.1112 249.336 44.8232 248.784C44.5352 248.224 44.1352 247.788 43.6232 247.476C43.1112 247.164 42.5272 247.008 41.8712 247.008C41.2152 247.008 40.6312 247.164 40.1192 247.476C39.6072 247.788 39.2072 248.224 38.9192 248.784C38.6312 249.336 38.4872 249.964 38.4872 250.668C38.4872 251.372 38.6312 252.004 38.9192 252.564C39.2072 253.116 39.6072 253.548 40.1192 253.86C40.6312 254.172 41.2152 254.328 41.8712 254.328ZM41.8712 246.24C42.6952 246.24 43.4272 246.428 44.0672 246.804C44.7152 247.18 45.2192 247.704 45.5792 248.376C45.9472 249.048 46.1312 249.812 46.1312 250.668C46.1312 251.524 45.9472 252.288 45.5792 252.96C45.2192 253.632 44.7152 254.156 44.0672 254.532C43.4272 254.908 42.6952 255.096 41.8712 255.096C41.0472 255.096 40.3112 254.908 39.6632 254.532C39.0232 254.156 38.5192 253.632 38.1512 252.96C37.7912 252.288 37.6112 251.524 37.6112 250.668C37.6112 249.812 37.7912 249.048 38.1512 248.376C38.5192 247.704 39.0232 247.18 39.6632 246.804C40.3112 246.428 41.0472 246.24 41.8712 246.24ZM53.415 250.644C53.943 250.644 54.375 250.476 54.711 250.14C55.047 249.804 55.215 249.376 55.215 248.856C55.215 248.344 55.047 247.924 54.711 247.596C54.375 247.268 53.943 247.104 53.415 247.104H51.327V250.644H53.415ZM55.443 255L52.983 251.412H51.327V255H50.463V246.336H53.391C53.919 246.336 54.383 246.448 54.783 246.672C55.191 246.888 55.507 247.192 55.731 247.584C55.963 247.968 56.079 248.408 56.079 248.904C56.079 249.504 55.883 250.032 55.491 250.488C55.107 250.944 54.607 251.232 53.991 251.352L56.487 255H55.443ZM66.4821 247.104H61.9821V250.152H65.8701V250.92H61.9821V254.232H66.4821V255H61.1181V246.336H66.4821V247.104ZM78.2003 255H77.2763L76.3283 252.504H72.4403L71.4683 255H70.5443L73.8923 246.336H74.9003L78.2003 255ZM76.0283 251.736L74.3963 247.44L72.7283 251.736H76.0283ZM89.2733 246.336V255H88.4093V246.336H89.2733ZM100.649 255H99.7853L94.9972 247.872L94.9972 255H94.1332L94.1332 246.336H94.9972L99.7853 253.44V246.336H100.649L100.649 255ZM35.508 268H34.584L33.636 265.504H29.748L28.776 268H27.852L31.2 259.336H32.208L35.508 268ZM33.336 264.736L31.704 260.44L30.036 264.736H33.336ZM40.9381 259.336V268H40.0741V259.336H40.9381ZM54.3117 263.644C54.8397 263.644 55.2717 263.476 55.6077 263.14C55.9437 262.804 56.1117 262.376 56.1117 261.856C56.1117 261.344 55.9437 260.924 55.6077 260.596C55.2717 260.268 54.8397 260.104 54.3117 260.104H52.2237L52.2237 263.644H54.3117ZM56.3397 268L53.8797 264.412H52.2237V268H51.3597L51.3597 259.336H54.2877C54.8157 259.336 55.2797 259.448 55.6797 259.672C56.0877 259.888 56.4037 260.192 56.6277 260.584C56.8597 260.968 56.9757 261.408 56.9757 261.904C56.9757 262.504 56.7797 263.032 56.3877 263.488C56.0037 263.944 55.5037 264.232 54.8877 264.352L57.3837 268H56.3397ZM67.3788 260.104H62.8788V263.152H66.7668V263.92H62.8788V267.232H67.3788V268H62.0148V259.336H67.3788V260.104ZM75.794 268H74.858L71.57 259.336H72.494L75.314 266.776L78.002 259.336H78.926L75.794 268ZM86.4563 267.328C87.1123 267.328 87.6963 267.172 88.2083 266.86C88.7203 266.548 89.1203 266.116 89.4083 265.564C89.6963 265.004 89.8403 264.372 89.8403 263.668C89.8403 262.964 89.6963 262.336 89.4083 261.784C89.1203 261.224 88.7203 260.788 88.2083 260.476C87.6963 260.164 87.1123 260.008 86.4563 260.008C85.8003 260.008 85.2163 260.164 84.7043 260.476C84.1923 260.788 83.7923 261.224 83.5043 261.784C83.2163 262.336 83.0723 262.964 83.0723 263.668C83.0723 264.372 83.2163 265.004 83.5043 265.564C83.7923 266.116 84.1923 266.548 84.7043 266.86C85.2163 267.172 85.8003 267.328 86.4563 267.328ZM86.4563 259.24C87.2803 259.24 88.0123 259.428 88.6523 259.804C89.3003 260.18 89.8043 260.704 90.1643 261.376C90.5323 262.048 90.7163 262.812 90.7163 263.668C90.7163 264.524 90.5323 265.288 90.1643 265.96C89.8043 266.632 89.3003 267.156 88.6523 267.532C88.0123 267.908 87.2803 268.096 86.4563 268.096C85.6323 268.096 84.8963 267.908 84.2483 267.532C83.6083 267.156 83.1043 266.632 82.7363 265.96C82.3763 265.288 82.1963 264.524 82.1963 263.668C82.1963 262.812 82.3763 262.048 82.7363 261.376C83.1043 260.704 83.6083 260.18 84.2483 259.804C84.8963 259.428 85.6323 259.24 86.4563 259.24ZM95.8882 267.232H100.016V268H95.0242V259.336H95.8882V267.232ZM107.516 268.084C106.852 268.084 106.28 267.94 105.8 267.652C105.32 267.356 104.952 266.948 104.696 266.428C104.44 265.908 104.312 265.308 104.312 264.628V259.336H105.176V264.64C105.176 265.448 105.38 266.096 105.788 266.584C106.204 267.072 106.78 267.316 107.516 267.316C108.252 267.316 108.824 267.072 109.232 266.584C109.648 266.096 109.856 265.448 109.856 264.64V259.336H110.72V264.628C110.72 265.308 110.592 265.908 110.336 266.428C110.08 266.948 109.712 267.356 109.232 267.652C108.752 267.94 108.18 268.084 107.516 268.084ZM121.235 260.104H118.643V268H117.779V260.104H115.199V259.336H121.235V260.104ZM126.622 259.336V268H125.758V259.336H126.622ZM135.459 267.328C136.115 267.328 136.699 267.172 137.211 266.86C137.723 266.548 138.123 266.116 138.411 265.564C138.699 265.004 138.843 264.372 138.843 263.668C138.843 262.964 138.699 262.336 138.411 261.784C138.123 261.224 137.723 260.788 137.211 260.476C136.699 260.164 136.115 260.008 135.459 260.008C134.803 260.008 134.219 260.164 133.707 260.476C133.195 260.788 132.795 261.224 132.507 261.784C132.219 262.336 132.075 262.964 132.075 263.668C132.075 264.372 132.219 265.004 132.507 265.564C132.795 266.116 133.195 266.548 133.707 266.86C134.219 267.172 134.803 267.328 135.459 267.328ZM135.459 259.24C136.283 259.24 137.015 259.428 137.655 259.804C138.303 260.18 138.807 260.704 139.167 261.376C139.535 262.048 139.719 262.812 139.719 263.668C139.719 264.524 139.535 265.288 139.167 265.96C138.807 266.632 138.303 267.156 137.655 267.532C137.015 267.908 136.283 268.096 135.459 268.096C134.635 268.096 133.899 267.908 133.251 267.532C132.611 267.156 132.107 266.632 131.739 265.96C131.379 265.288 131.199 264.524 131.199 263.668C131.199 262.812 131.379 262.048 131.739 261.376C132.107 260.704 132.611 260.18 133.251 259.804C133.899 259.428 134.635 259.24 135.459 259.24ZM150.531 268H149.667L144.879 260.872V268H144.015V259.336H144.879L149.667 266.44V259.336H150.531V268Z" fill="#FBFBFB"/>
<path d="M27.396 191C29.052 190.748 29.988 190.064 29.988 188.444V168.5C29.988 166.664 28.728 166.052 27.072 165.8H40.464C45.036 165.8 48.816 167.42 48.708 171.056C48.564 175.988 38.988 175.808 39.132 177.68C39.312 179.912 50.04 178.328 50.364 184.52C50.58 189.236 44.352 191 40.104 191H27.396ZM34.38 188.3C34.38 190.136 35.388 190.46 37.512 190.46H40.536C43.596 190.46 46.368 188.192 46.008 184.376C45.648 180.02 38.556 180.056 38.376 177.788C38.232 175.592 44.28 175.052 44.46 170.984C44.64 167.924 42.696 166.34 38.772 166.34H34.38V188.3ZM68.3845 191.432C59.4205 191.432 54.7765 185.6 54.7765 178.4C54.7765 171.164 59.4205 165.332 68.3845 165.332C77.3485 165.332 81.9565 171.164 81.9565 178.4C81.9565 185.6 77.3485 191.432 68.3845 191.432ZM59.2045 178.4C59.2045 187.4 63.7405 191 68.3845 191C72.9925 191 77.5645 187.4 77.5645 178.4C77.5645 169.364 72.9925 165.8 68.3845 165.8C63.7405 165.8 59.2045 169.364 59.2045 178.4ZM100.032 191.432C91.0682 191.432 86.4242 185.6 86.4242 178.4C86.4242 171.164 91.0682 165.332 100.032 165.332C108.996 165.332 113.604 171.164 113.604 178.4C113.604 185.6 108.996 191.432 100.032 191.432ZM90.8522 178.4C90.8522 187.4 95.3882 191 100.032 191C104.64 191 109.212 187.4 109.212 178.4C109.212 169.364 104.64 165.8 100.032 165.8C95.3882 165.8 90.8522 169.364 90.8522 178.4ZM115.124 165.8H136.976L133.304 174.548C134.42 171.02 134.744 166.34 130.676 166.34H128.228V188.3C128.228 190.136 129.092 190.712 131.144 191H120.92C122.828 190.712 123.836 190.136 123.836 188.3V166.34H121.424C117.32 166.34 117.68 171.02 118.796 174.548L115.124 165.8ZM138.897 191C140.733 190.712 141.813 190.136 141.813 188.3V168.5C141.813 166.628 140.733 166.052 138.897 165.8H149.121C147.285 166.052 146.205 166.628 146.205 168.5V176.312H155.637V168.5C155.637 166.628 154.557 166.052 152.721 165.8H162.945C161.109 166.052 160.065 166.628 160.065 168.5V188.3C160.065 190.136 161.109 190.712 162.945 191H152.721C154.557 190.712 155.637 190.136 155.637 188.3V176.852H146.205V188.3C146.205 190.136 147.285 190.712 149.121 191H138.897Z" fill="#FBFBFB"/>
<path d="M256.842 142.284C256.842 141.284 257.021 140.419 257.381 139.688C257.74 138.958 258.248 138.393 258.904 137.995C259.561 137.6 260.334 137.403 261.225 137.403L261.236 137.403C262.131 137.403 262.904 137.6 263.557 137.995C264.213 138.39 264.719 138.952 265.074 139.682C265.434 140.413 265.613 141.278 265.613 142.278C265.613 143.099 265.486 143.831 265.232 144.475C264.979 145.124 264.619 145.655 264.154 146.069C263.693 146.483 263.152 146.751 262.531 146.872L262.484 146.878L262.484 145.981L262.52 145.97C262.996 145.833 263.406 145.597 263.75 145.261C264.094 144.925 264.357 144.505 264.541 144.001C264.729 143.497 264.822 142.925 264.822 142.284C264.822 141.472 264.674 140.766 264.377 140.169C264.084 139.575 263.668 139.116 263.129 138.792C262.594 138.472 261.963 138.311 261.236 138.311L261.225 138.311C260.502 138.311 259.871 138.474 259.332 138.798C258.793 139.122 258.375 139.581 258.078 140.175C257.781 140.772 257.633 141.475 257.633 142.284C257.633 142.925 257.723 143.495 257.902 143.995C258.086 144.499 258.348 144.917 258.687 145.249C259.027 145.585 259.436 145.825 259.912 145.97L259.941 145.981L259.941 146.884L259.9 146.872C259.275 146.747 258.732 146.475 258.271 146.057C257.814 145.643 257.461 145.116 257.211 144.475C256.965 143.835 256.842 143.104 256.842 142.284ZM257 149.268L265.455 149.268L265.455 150.159L257.779 150.159L257.779 155.936L257 155.936L257 149.268ZM257 158.174L265.455 158.174L265.455 159.064L257 159.064L257 158.174ZM256.842 166.388C256.842 165.388 257.021 164.523 257.381 163.792C257.74 163.062 258.248 162.497 258.904 162.099C259.561 161.705 260.334 161.507 261.225 161.507L261.236 161.507C262.131 161.507 262.904 161.705 263.557 162.099C264.213 162.494 264.719 163.056 265.074 163.787C265.434 164.517 265.613 165.382 265.613 166.382C265.613 167.203 265.486 167.935 265.232 168.58C264.979 169.228 264.619 169.759 264.154 170.173C263.693 170.587 263.152 170.855 262.531 170.976L262.484 170.982L262.484 170.085L262.52 170.074C262.996 169.937 263.406 169.701 263.75 169.365C264.094 169.029 264.357 168.609 264.541 168.105C264.729 167.601 264.822 167.029 264.822 166.388C264.822 165.576 264.674 164.871 264.377 164.273C264.084 163.679 263.668 163.22 263.129 162.896C262.594 162.576 261.963 162.415 261.236 162.415L261.225 162.415C260.502 162.415 259.871 162.578 259.332 162.902C258.793 163.226 258.375 163.685 258.078 164.279C257.781 164.876 257.633 165.58 257.633 166.388C257.633 167.029 257.723 167.599 257.902 168.099C258.086 168.603 258.348 169.021 258.687 169.353C259.027 169.689 259.436 169.929 259.912 170.074L259.941 170.085L259.941 170.988L259.9 170.976C259.275 170.851 258.732 170.58 258.271 170.162C257.814 169.747 257.461 169.22 257.211 168.58C256.965 167.939 256.842 167.208 256.842 166.388ZM259.971 174.052L261.119 174.034L261.119 174.304L265.455 179.935L265.455 181.206L261.67 176.255L261.57 176.108L259.971 174.052ZM257 173.372L265.455 173.372L265.455 174.263L257 174.263L257 173.372ZM257 180.298L261.465 175.686L262.027 176.349L257 181.522L257 180.298ZM257 190.645L264.676 190.645L264.676 186.865L265.455 186.865L265.455 195.32L264.676 195.32L264.676 191.535L257 191.535L257 190.645ZM256.842 201.496C256.842 200.496 257.02 199.623 257.375 198.876C257.734 198.13 258.242 197.552 258.898 197.142C259.559 196.736 260.334 196.533 261.225 196.533L261.236 196.533C262.131 196.533 262.904 196.738 263.557 197.148C264.213 197.558 264.719 198.134 265.074 198.876C265.434 199.623 265.613 200.496 265.613 201.496C265.613 202.496 265.434 203.367 265.074 204.109C264.719 204.855 264.213 205.433 263.557 205.843C262.9 206.253 262.127 206.459 261.236 206.459L261.225 206.459C260.334 206.459 259.559 206.253 258.898 205.843C258.242 205.433 257.734 204.855 257.375 204.109C257.02 203.367 256.842 202.496 256.842 201.496ZM257.633 201.496C257.633 202.308 257.781 203.017 258.078 203.623C258.375 204.232 258.793 204.705 259.332 205.041C259.871 205.376 260.502 205.544 261.225 205.544L261.236 205.544C261.967 205.544 262.6 205.376 263.135 205.041C263.67 204.705 264.084 204.232 264.377 203.623C264.674 203.017 264.822 202.308 264.822 201.496C264.822 200.683 264.674 199.972 264.377 199.363C264.084 198.757 263.668 198.285 263.129 197.945C262.594 197.609 261.963 197.441 261.236 197.441L261.225 197.441C260.498 197.441 259.865 197.609 259.326 197.945C258.791 198.281 258.375 198.751 258.078 199.357C257.781 199.966 257.633 200.679 257.633 201.496ZM256.842 216.641C256.842 215.774 256.936 215.03 257.123 214.409C257.314 213.788 257.588 213.299 257.943 212.944C258.303 212.592 258.73 212.385 259.227 212.323L259.297 212.317L259.297 213.213L259.232 213.225C258.893 213.292 258.602 213.465 258.359 213.747C258.121 214.032 257.937 214.42 257.809 214.913C257.684 215.409 257.621 216.003 257.621 216.694C257.621 217.307 257.689 217.831 257.826 218.264C257.963 218.702 258.158 219.036 258.412 219.266C258.666 219.501 258.965 219.618 259.309 219.618L259.314 219.618C259.76 219.618 260.098 219.444 260.328 219.096C260.559 218.753 260.721 218.17 260.814 217.35L260.996 215.417C261.109 214.428 261.344 213.7 261.699 213.231C262.055 212.766 262.553 212.534 263.193 212.534L263.205 212.534C263.689 212.534 264.111 212.686 264.471 212.991C264.834 213.295 265.115 213.727 265.314 214.286C265.514 214.848 265.613 215.512 265.613 216.278C265.613 217.086 265.518 217.784 265.326 218.37C265.135 218.956 264.861 219.419 264.506 219.758C264.15 220.098 263.73 220.297 263.246 220.356L263.187 220.368L263.187 219.471L263.246 219.46C263.582 219.381 263.867 219.211 264.102 218.95C264.34 218.692 264.521 218.338 264.646 217.889C264.771 217.444 264.834 216.903 264.834 216.266C264.834 215.676 264.77 215.17 264.641 214.749C264.512 214.327 264.326 214.003 264.084 213.776C263.846 213.553 263.561 213.442 263.229 213.442L263.223 213.442C262.805 213.442 262.484 213.612 262.262 213.952C262.039 214.295 261.883 214.848 261.793 215.61L261.617 217.544C261.535 218.243 261.402 218.811 261.219 219.249C261.039 219.686 260.797 220.008 260.492 220.215C260.191 220.422 259.818 220.526 259.373 220.526L259.367 220.526C258.84 220.526 258.387 220.372 258.008 220.063C257.633 219.758 257.344 219.317 257.141 218.739C256.941 218.161 256.842 217.461 256.842 216.641ZM260.152 223.35L260.92 223.35L260.92 227.568C260.92 228.275 261.084 228.82 261.412 229.203C261.744 229.59 262.207 229.783 262.801 229.783L262.812 229.783C263.402 229.783 263.861 229.59 264.189 229.203C264.521 228.82 264.687 228.275 264.687 227.568L264.687 223.35L265.455 223.35L265.455 227.686C265.455 228.307 265.346 228.84 265.127 229.285C264.912 229.734 264.607 230.08 264.213 230.322C263.818 230.568 263.355 230.691 262.824 230.691L262.812 230.691C262.277 230.691 261.811 230.568 261.412 230.322C261.014 230.08 260.703 229.734 260.48 229.285C260.262 228.836 260.152 228.303 260.152 227.686L260.152 223.35ZM257 222.904L265.455 222.904L265.455 223.795L257 223.795L257 222.904ZM257 233.052L265.455 233.052L265.455 233.943L257 233.943L257 233.052ZM257 236.732L265.455 236.732L265.455 237.587L257.756 244.882L258.271 243.933L258.271 244.366L265.455 244.366L265.455 245.245L257 245.245L257 244.39L264.711 237.095L264.189 238.044L264.189 237.61L257 237.61L257 236.732Z" fill="#919191"/>
<defs>
<linearGradient id="paint0_linear_1473_12188" x1="20.1758" y1="-8.21011e-05" x2="95.7492" y2="323.997" gradientUnits="userSpaceOnUse">
<stop stop-color="white" stop-opacity="0.4"/>
<stop offset="0.405687" stop-color="white" stop-opacity="0.01"/>
<stop offset="0.574372" stop-color="white" stop-opacity="0.01"/>
<stop offset="1" stop-color="white" stop-opacity="0.1"/>
</linearGradient>
<linearGradient id="paint1_linear_1473_12188" x1="287" y1="192.909" x2="-0.643136" y2="189.289" gradientUnits="userSpaceOnUse">
<stop stop-color="#121212"/>
<stop offset="1" stop-color="#121212" stop-opacity="0"/>
</linearGradient>
</defs>
</svg>
