<svg width="440" height="440" viewBox="0 0 440 440" fill="none" xmlns="http://www.w3.org/2000/svg">
<g opacity="0.8" filter="url(#filter0_f_380_5799)">
<g filter="url(#filter1_f_380_5799)">
<mask id="mask0_380_5799" style="mask-type:alpha" maskUnits="userSpaceOnUse" x="70" y="70" width="300" height="300">
<circle cx="149.953" cy="149.953" r="149.953" transform="matrix(-1 0 0 1 369.906 70)" fill="#D9D9D9"/>
</mask>
<g mask="url(#mask0_380_5799)">
<g filter="url(#filter2_f_380_5799)">
<circle cx="64.2067" cy="64.2067" r="64.2067" transform="matrix(-1 0 0 1 430.473 228.121)" fill="#038DFE"/>
</g>
<g filter="url(#filter3_f_380_5799)">
<circle cx="161.39" cy="161.39" r="161.39" transform="matrix(-1 0 0 1 454.059 66.5127)" fill="#133DE7"/>
</g>
<g filter="url(#filter4_f_380_5799)">
<circle cx="137.804" cy="137.804" r="137.804" transform="matrix(-1 0 0 1 214.266 -39.8428)" fill="#5419EA"/>
</g>
<g filter="url(#filter5_f_380_5799)">
<circle cx="98.7123" cy="98.7123" r="98.7123" transform="matrix(-1 0 0 1 454.059 -0.750977)" fill="#10D48D"/>
</g>
<g filter="url(#filter6_f_380_5799)">
<ellipse cx="141.703" cy="187.597" rx="141.703" ry="187.597" transform="matrix(-0.378775 0.925489 0.925489 0.378775 -27.2715 90.0986)" fill="#038DFE"/>
</g>
<g filter="url(#filter7_f_380_5799)">
<circle cx="77.7469" cy="77.7469" r="77.7469" transform="matrix(-1 0 0 1 281.094 33.7549)" fill="#226ADF"/>
</g>
<g filter="url(#filter8_f_380_5799)">
<circle cx="52.1952" cy="52.1952" r="52.1952" transform="matrix(-1 0 0 1 68.8184 235.766)" fill="#10D48D"/>
</g>
<g filter="url(#filter9_f_380_5799)">
<circle cx="52.1952" cy="52.1952" r="52.1952" transform="matrix(-1 0 0 1 76.4609 7.11133)" fill="#10D48D"/>
</g>
<g opacity="0.67" filter="url(#filter10_f_380_5799)">
<ellipse cx="86.8101" cy="58.9653" rx="86.8101" ry="58.9653" transform="matrix(-1 0 0 1 256.633 130.283)" fill="#5419EA"/>
</g>
<g opacity="0.42" filter="url(#filter11_f_380_5799)">
<ellipse cx="35.3004" cy="46.7333" rx="35.3004" ry="46.7333" transform="matrix(-0.378775 0.925489 0.925489 0.378775 292.648 47.5127)" fill="#038DFE"/>
</g>
<g opacity="0.2" filter="url(#filter12_f_380_5799)">
<circle cx="98.7123" cy="98.7123" r="98.7123" transform="matrix(-1 0 0 1 319.967 129.19)" fill="white"/>
</g>
</g>
</g>
<g style="mix-blend-mode:plus-lighter" filter="url(#filter13_i_380_5799)">
<mask id="mask1_380_5799" style="mask-type:alpha" maskUnits="userSpaceOnUse" x="70" y="70" width="300" height="300">
<mask id="mask2_380_5799" style="mask-type:alpha" maskUnits="userSpaceOnUse" x="70" y="70" width="300" height="300">
<circle cx="149.953" cy="149.953" r="149.953" transform="matrix(-1 0 0 1 370 70.0947)" fill="#D9D9D9"/>
</mask>
<g mask="url(#mask2_380_5799)">
<circle cx="64.2067" cy="64.2067" r="64.2067" transform="matrix(-1 0 0 1 422.354 220.005)" fill="#038DFE"/>
<circle cx="161.39" cy="161.39" r="161.39" transform="matrix(-1 0 0 1 445.939 58.3965)" fill="#133DE7"/>
<circle cx="137.804" cy="137.804" r="137.804" transform="matrix(-1 0 0 1 206.148 -47.96)" fill="#5419EA"/>
<circle cx="98.7123" cy="98.7123" r="98.7123" transform="matrix(-1 0 0 1 445.939 -8.86816)" fill="#10D48D"/>
<ellipse cx="141.703" cy="187.597" rx="141.703" ry="187.597" transform="matrix(-0.378775 0.925489 0.925489 0.378775 -35.3887 81.9824)" fill="#038DFE"/>
<circle cx="77.7469" cy="77.7469" r="77.7469" transform="matrix(-1 0 0 1 272.975 25.6377)" fill="#226ADF"/>
<circle cx="52.1952" cy="52.1952" r="52.1952" transform="matrix(-1 0 0 1 60.7012 227.648)" fill="#10D48D"/>
<circle cx="52.1952" cy="52.1952" r="52.1952" transform="matrix(-1 0 0 1 68.3438 -1.00586)" fill="#10D48D"/>
<ellipse opacity="0.67" cx="86.8101" cy="58.9653" rx="86.8101" ry="58.9653" transform="matrix(-1 0 0 1 248.516 122.166)" fill="#5419EA"/>
<ellipse opacity="0.42" cx="35.3004" cy="46.7333" rx="35.3004" ry="46.7333" transform="matrix(-0.378775 0.925489 0.925489 0.378775 284.529 39.3965)" fill="#038DFE"/>
<circle opacity="0.2" cx="98.7123" cy="98.7123" r="98.7123" transform="matrix(-1 0 0 1 311.848 121.074)" fill="white"/>
</g>
</mask>
<g mask="url(#mask1_380_5799)">
<g opacity="0.34" filter="url(#filter14_f_380_5799)">
<mask id="mask3_380_5799" style="mask-type:alpha" maskUnits="userSpaceOnUse" x="279" y="-78" width="278" height="278">
<circle cx="138.298" cy="138.298" r="138.298" transform="matrix(1 1.74846e-07 1.74846e-07 -1 279.787 199.244)" fill="#D9D9D9"/>
</mask>
<g mask="url(#mask3_380_5799)">
<g filter="url(#filter15_f_380_5799)">
<circle cx="59.2163" cy="59.2163" r="59.2163" transform="matrix(1 1.74846e-07 1.74846e-07 -1 223.928 53.4121)" fill="#038DFE"/>
</g>
<g filter="url(#filter16_f_380_5799)">
<circle cx="148.846" cy="148.846" r="148.846" transform="matrix(1 1.74846e-07 1.74846e-07 -1 202.176 202.46)" fill="#133DE7"/>
</g>
<g filter="url(#filter17_f_380_5799)">
<circle cx="91.04" cy="91.04" r="91.04" transform="matrix(1 1.74846e-07 1.74846e-07 -1 202.176 264.496)" fill="#26FFB0"/>
</g>
<g filter="url(#filter18_f_380_5799)">
<ellipse cx="130.689" cy="173.016" rx="130.689" ry="173.016" transform="matrix(0.378775 -0.925489 -0.925489 -0.378775 646.096 180.708)" fill="#038DFE"/>
</g>
<g filter="url(#filter19_f_380_5799)">
<circle cx="71.7041" cy="71.7041" r="71.7041" transform="matrix(1 1.74846e-07 1.74846e-07 -1 361.697 232.673)" fill="#226ADF"/>
</g>
<g opacity="0.67" filter="url(#filter20_f_380_5799)">
<ellipse cx="80.0629" cy="54.3823" rx="80.0629" ry="54.3823" transform="matrix(1 1.74846e-07 1.74846e-07 -1 384.256 143.646)" fill="#5419EA"/>
</g>
<g opacity="0.42" filter="url(#filter21_f_380_5799)">
<ellipse cx="32.5567" cy="43.1011" rx="32.5567" ry="43.1011" transform="matrix(0.378775 -0.925489 -0.925489 -0.378775 351.041 219.983)" fill="#038DFE"/>
</g>
<g opacity="0.2" filter="url(#filter22_f_380_5799)">
<circle cx="91.04" cy="91.04" r="91.04" transform="matrix(1 1.74846e-07 1.74846e-07 -1 325.846 144.654)" fill="white"/>
</g>
</g>
</g>
</g>
</g>
<g filter="url(#filter23_f_380_5799)">
<path d="M95.0006 181.5C89.5743 153.012 170.002 99.6254 182.501 109C195 118.375 165.5 127.5 141.5 147.5C117.5 167.5 99.0006 202.5 95.0006 181.5Z" fill="white"/>
</g>
</g>
<g filter="url(#filter24_ii_380_5799)">
<g filter="url(#filter25_f_380_5799)">
<mask id="mask4_380_5799" style="mask-type:alpha" maskUnits="userSpaceOnUse" x="70" y="70" width="300" height="300">
<circle cx="149.953" cy="149.953" r="149.953" transform="matrix(-1 0 0 1 369.906 70)" fill="#D9D9D9"/>
</mask>
<g mask="url(#mask4_380_5799)">
<g filter="url(#filter26_f_380_5799)">
<circle cx="64.2067" cy="64.2067" r="64.2067" transform="matrix(-1 0 0 1 430.473 228.121)" fill="#038DFE"/>
</g>
<g filter="url(#filter27_f_380_5799)">
<circle cx="161.39" cy="161.39" r="161.39" transform="matrix(-1 0 0 1 454.059 66.5127)" fill="#133DE7"/>
</g>
<g filter="url(#filter28_f_380_5799)">
<circle cx="137.804" cy="137.804" r="137.804" transform="matrix(-1 0 0 1 214.266 -39.8428)" fill="#5419EA"/>
</g>
<g filter="url(#filter29_f_380_5799)">
<circle cx="98.7123" cy="98.7123" r="98.7123" transform="matrix(-1 0 0 1 454.059 -0.750977)" fill="#10D48D"/>
</g>
<g filter="url(#filter30_f_380_5799)">
<ellipse cx="141.703" cy="187.597" rx="141.703" ry="187.597" transform="matrix(-0.378775 0.925489 0.925489 0.378775 -27.2715 90.0986)" fill="#038DFE"/>
</g>
<g filter="url(#filter31_f_380_5799)">
<circle cx="77.7469" cy="77.7469" r="77.7469" transform="matrix(-1 0 0 1 281.094 33.7549)" fill="#226ADF"/>
</g>
<g filter="url(#filter32_f_380_5799)">
<circle cx="52.1952" cy="52.1952" r="52.1952" transform="matrix(-1 0 0 1 68.8184 235.766)" fill="#10D48D"/>
</g>
<g filter="url(#filter33_f_380_5799)">
<circle cx="52.1952" cy="52.1952" r="52.1952" transform="matrix(-1 0 0 1 76.4609 7.11133)" fill="#10D48D"/>
</g>
<g opacity="0.67" filter="url(#filter34_f_380_5799)">
<ellipse cx="86.8101" cy="58.9653" rx="86.8101" ry="58.9653" transform="matrix(-1 0 0 1 256.633 130.283)" fill="#5419EA"/>
</g>
<g opacity="0.42" filter="url(#filter35_f_380_5799)">
<ellipse cx="35.3004" cy="46.7333" rx="35.3004" ry="46.7333" transform="matrix(-0.378775 0.925489 0.925489 0.378775 292.648 47.5127)" fill="#038DFE"/>
</g>
<g opacity="0.2" filter="url(#filter36_f_380_5799)">
<circle cx="98.7123" cy="98.7123" r="98.7123" transform="matrix(-1 0 0 1 319.967 129.19)" fill="white"/>
</g>
</g>
</g>
<g style="mix-blend-mode:plus-lighter" filter="url(#filter37_i_380_5799)">
<mask id="mask5_380_5799" style="mask-type:alpha" maskUnits="userSpaceOnUse" x="70" y="70" width="300" height="300">
<mask id="mask6_380_5799" style="mask-type:alpha" maskUnits="userSpaceOnUse" x="70" y="70" width="300" height="300">
<circle cx="149.953" cy="149.953" r="149.953" transform="matrix(-1 0 0 1 370 70.0947)" fill="#D9D9D9"/>
</mask>
<g mask="url(#mask6_380_5799)">
<circle cx="64.2067" cy="64.2067" r="64.2067" transform="matrix(-1 0 0 1 422.354 220.005)" fill="#038DFE"/>
<circle cx="161.39" cy="161.39" r="161.39" transform="matrix(-1 0 0 1 445.939 58.3965)" fill="#133DE7"/>
<circle cx="137.804" cy="137.804" r="137.804" transform="matrix(-1 0 0 1 206.148 -47.96)" fill="#5419EA"/>
<circle cx="98.7123" cy="98.7123" r="98.7123" transform="matrix(-1 0 0 1 445.939 -8.86816)" fill="#10D48D"/>
<ellipse cx="141.703" cy="187.597" rx="141.703" ry="187.597" transform="matrix(-0.378775 0.925489 0.925489 0.378775 -35.3887 81.9824)" fill="#038DFE"/>
<circle cx="77.7469" cy="77.7469" r="77.7469" transform="matrix(-1 0 0 1 272.975 25.6377)" fill="#226ADF"/>
<circle cx="52.1952" cy="52.1952" r="52.1952" transform="matrix(-1 0 0 1 60.7012 227.648)" fill="#10D48D"/>
<circle cx="52.1952" cy="52.1952" r="52.1952" transform="matrix(-1 0 0 1 68.3438 -1.00586)" fill="#10D48D"/>
<ellipse opacity="0.67" cx="86.8101" cy="58.9653" rx="86.8101" ry="58.9653" transform="matrix(-1 0 0 1 248.516 122.166)" fill="#5419EA"/>
<ellipse opacity="0.42" cx="35.3004" cy="46.7333" rx="35.3004" ry="46.7333" transform="matrix(-0.378775 0.925489 0.925489 0.378775 284.529 39.3965)" fill="#038DFE"/>
<circle opacity="0.2" cx="98.7123" cy="98.7123" r="98.7123" transform="matrix(-1 0 0 1 311.848 121.074)" fill="white"/>
</g>
</mask>
<g mask="url(#mask5_380_5799)">
<g opacity="0.34" filter="url(#filter38_f_380_5799)">
<mask id="mask7_380_5799" style="mask-type:alpha" maskUnits="userSpaceOnUse" x="279" y="-78" width="278" height="278">
<circle cx="138.298" cy="138.298" r="138.298" transform="matrix(1 1.74846e-07 1.74846e-07 -1 279.787 199.244)" fill="#D9D9D9"/>
</mask>
<g mask="url(#mask7_380_5799)">
<g filter="url(#filter39_f_380_5799)">
<circle cx="59.2163" cy="59.2163" r="59.2163" transform="matrix(1 1.74846e-07 1.74846e-07 -1 223.928 53.4121)" fill="#038DFE"/>
</g>
<g filter="url(#filter40_f_380_5799)">
<circle cx="148.846" cy="148.846" r="148.846" transform="matrix(1 1.74846e-07 1.74846e-07 -1 202.176 202.46)" fill="#133DE7"/>
</g>
<g filter="url(#filter41_f_380_5799)">
<circle cx="91.04" cy="91.04" r="91.04" transform="matrix(1 1.74846e-07 1.74846e-07 -1 202.176 264.496)" fill="#26FFB0"/>
</g>
<g filter="url(#filter42_f_380_5799)">
<ellipse cx="130.689" cy="173.016" rx="130.689" ry="173.016" transform="matrix(0.378775 -0.925489 -0.925489 -0.378775 646.096 180.708)" fill="#038DFE"/>
</g>
<g filter="url(#filter43_f_380_5799)">
<circle cx="71.7041" cy="71.7041" r="71.7041" transform="matrix(1 1.74846e-07 1.74846e-07 -1 361.697 232.673)" fill="#226ADF"/>
</g>
<g opacity="0.67" filter="url(#filter44_f_380_5799)">
<ellipse cx="80.0629" cy="54.3823" rx="80.0629" ry="54.3823" transform="matrix(1 1.74846e-07 1.74846e-07 -1 384.256 143.646)" fill="#5419EA"/>
</g>
<g opacity="0.42" filter="url(#filter45_f_380_5799)">
<ellipse cx="32.5567" cy="43.1011" rx="32.5567" ry="43.1011" transform="matrix(0.378775 -0.925489 -0.925489 -0.378775 351.041 219.983)" fill="#038DFE"/>
</g>
<g opacity="0.2" filter="url(#filter46_f_380_5799)">
<circle cx="91.04" cy="91.04" r="91.04" transform="matrix(1 1.74846e-07 1.74846e-07 -1 325.846 144.654)" fill="white"/>
</g>
</g>
</g>
</g>
</g>
<g filter="url(#filter47_f_380_5799)">
<path d="M95.0006 181.5C89.5743 153.012 170.002 99.6254 182.501 109C195 118.375 165.5 127.5 141.5 147.5C117.5 167.5 99.0006 202.5 95.0006 181.5Z" fill="white"/>
</g>
</g>
<defs>
<filter id="filter0_f_380_5799" x="0" y="0" width="440" height="440" filterUnits="userSpaceOnUse" color-interpolation-filters="sRGB">
<feFlood flood-opacity="0" result="BackgroundImageFix"/>
<feBlend mode="normal" in="SourceGraphic" in2="BackgroundImageFix" result="shape"/>
<feGaussianBlur stdDeviation="35" result="effect1_foregroundBlur_380_5799"/>
</filter>
<filter id="filter1_f_380_5799" x="53.3501" y="53.3501" width="333.206" height="333.205" filterUnits="userSpaceOnUse" color-interpolation-filters="sRGB">
<feFlood flood-opacity="0" result="BackgroundImageFix"/>
<feBlend mode="normal" in="SourceGraphic" in2="BackgroundImageFix" result="shape"/>
<feGaussianBlur stdDeviation="8.32493" result="effect1_foregroundBlur_380_5799"/>
</filter>
<filter id="filter2_f_380_5799" x="260.502" y="186.564" width="211.527" height="211.526" filterUnits="userSpaceOnUse" color-interpolation-filters="sRGB">
<feFlood flood-opacity="0" result="BackgroundImageFix"/>
<feBlend mode="normal" in="SourceGraphic" in2="BackgroundImageFix" result="shape"/>
<feGaussianBlur stdDeviation="20.7783" result="effect1_foregroundBlur_380_5799"/>
</filter>
<filter id="filter3_f_380_5799" x="89.7207" y="24.9561" width="405.894" height="405.893" filterUnits="userSpaceOnUse" color-interpolation-filters="sRGB">
<feFlood flood-opacity="0" result="BackgroundImageFix"/>
<feBlend mode="normal" in="SourceGraphic" in2="BackgroundImageFix" result="shape"/>
<feGaussianBlur stdDeviation="20.7783" result="effect1_foregroundBlur_380_5799"/>
</filter>
<filter id="filter4_f_380_5799" x="-102.898" y="-81.3994" width="358.721" height="358.722" filterUnits="userSpaceOnUse" color-interpolation-filters="sRGB">
<feFlood flood-opacity="0" result="BackgroundImageFix"/>
<feBlend mode="normal" in="SourceGraphic" in2="BackgroundImageFix" result="shape"/>
<feGaussianBlur stdDeviation="20.7783" result="effect1_foregroundBlur_380_5799"/>
</filter>
<filter id="filter5_f_380_5799" x="215.078" y="-42.3076" width="280.537" height="280.538" filterUnits="userSpaceOnUse" color-interpolation-filters="sRGB">
<feFlood flood-opacity="0" result="BackgroundImageFix"/>
<feBlend mode="normal" in="SourceGraphic" in2="BackgroundImageFix" result="shape"/>
<feGaussianBlur stdDeviation="20.7783" result="effect1_foregroundBlur_380_5799"/>
</filter>
<filter id="filter6_f_380_5799" x="-130.658" y="101.558" width="446.664" height="381.485" filterUnits="userSpaceOnUse" color-interpolation-filters="sRGB">
<feFlood flood-opacity="0" result="BackgroundImageFix"/>
<feBlend mode="normal" in="SourceGraphic" in2="BackgroundImageFix" result="shape"/>
<feGaussianBlur stdDeviation="20.7783" result="effect1_foregroundBlur_380_5799"/>
</filter>
<filter id="filter7_f_380_5799" x="84.043" y="-7.80171" width="238.607" height="238.607" filterUnits="userSpaceOnUse" color-interpolation-filters="sRGB">
<feFlood flood-opacity="0" result="BackgroundImageFix"/>
<feBlend mode="normal" in="SourceGraphic" in2="BackgroundImageFix" result="shape"/>
<feGaussianBlur stdDeviation="20.7783" result="effect1_foregroundBlur_380_5799"/>
</filter>
<filter id="filter8_f_380_5799" x="-77.1289" y="194.209" width="187.504" height="187.504" filterUnits="userSpaceOnUse" color-interpolation-filters="sRGB">
<feFlood flood-opacity="0" result="BackgroundImageFix"/>
<feBlend mode="normal" in="SourceGraphic" in2="BackgroundImageFix" result="shape"/>
<feGaussianBlur stdDeviation="20.7783" result="effect1_foregroundBlur_380_5799"/>
</filter>
<filter id="filter9_f_380_5799" x="-69.4863" y="-34.4453" width="187.504" height="187.504" filterUnits="userSpaceOnUse" color-interpolation-filters="sRGB">
<feFlood flood-opacity="0" result="BackgroundImageFix"/>
<feBlend mode="normal" in="SourceGraphic" in2="BackgroundImageFix" result="shape"/>
<feGaussianBlur stdDeviation="20.7783" result="effect1_foregroundBlur_380_5799"/>
</filter>
<filter id="filter10_f_380_5799" x="41.4551" y="88.7266" width="256.734" height="201.044" filterUnits="userSpaceOnUse" color-interpolation-filters="sRGB">
<feFlood flood-opacity="0" result="BackgroundImageFix"/>
<feBlend mode="normal" in="SourceGraphic" in2="BackgroundImageFix" result="shape"/>
<feGaussianBlur stdDeviation="20.7783" result="effect1_foregroundBlur_380_5799"/>
</filter>
<filter id="filter11_f_380_5799" x="235.689" y="19.1631" width="173.68" height="157.442" filterUnits="userSpaceOnUse" color-interpolation-filters="sRGB">
<feFlood flood-opacity="0" result="BackgroundImageFix"/>
<feBlend mode="normal" in="SourceGraphic" in2="BackgroundImageFix" result="shape"/>
<feGaussianBlur stdDeviation="20.7783" result="effect1_foregroundBlur_380_5799"/>
</filter>
<filter id="filter12_f_380_5799" x="80.9864" y="87.6338" width="280.537" height="280.538" filterUnits="userSpaceOnUse" color-interpolation-filters="sRGB">
<feFlood flood-opacity="0" result="BackgroundImageFix"/>
<feBlend mode="normal" in="SourceGraphic" in2="BackgroundImageFix" result="shape"/>
<feGaussianBlur stdDeviation="20.7783" result="effect1_foregroundBlur_380_5799"/>
</filter>
<filter id="filter13_i_380_5799" x="279.787" y="70.0947" width="90.2129" height="129.913" filterUnits="userSpaceOnUse" color-interpolation-filters="sRGB">
<feFlood flood-opacity="0" result="BackgroundImageFix"/>
<feBlend mode="normal" in="SourceGraphic" in2="BackgroundImageFix" result="shape"/>
<feColorMatrix in="SourceAlpha" type="matrix" values="0 0 0 0 0 0 0 0 0 0 0 0 0 0 0 0 0 0 127 0" result="hardAlpha"/>
<feOffset dy="0.763849"/>
<feGaussianBlur stdDeviation="0.381925"/>
<feComposite in2="hardAlpha" operator="arithmetic" k2="-1" k3="1"/>
<feColorMatrix type="matrix" values="0 0 0 0 0 0 0 0 0 0 0 0 0 0 0 0 0 0 0.25 0"/>
<feBlend mode="normal" in2="shape" result="effect1_innerShadow_380_5799"/>
</filter>
<filter id="filter14_f_380_5799" x="179.787" y="-177.352" width="476.596" height="476.596" filterUnits="userSpaceOnUse" color-interpolation-filters="sRGB">
<feFlood flood-opacity="0" result="BackgroundImageFix"/>
<feBlend mode="normal" in="SourceGraphic" in2="BackgroundImageFix" result="shape"/>
<feGaussianBlur stdDeviation="19.5" result="effect1_foregroundBlur_380_5799"/>
</filter>
<filter id="filter15_f_380_5799" x="185.601" y="-103.347" width="195.087" height="195.086" filterUnits="userSpaceOnUse" color-interpolation-filters="sRGB">
<feFlood flood-opacity="0" result="BackgroundImageFix"/>
<feBlend mode="normal" in="SourceGraphic" in2="BackgroundImageFix" result="shape"/>
<feGaussianBlur stdDeviation="19.1633" result="effect1_foregroundBlur_380_5799"/>
</filter>
<filter id="filter16_f_380_5799" x="163.849" y="-133.56" width="374.347" height="374.347" filterUnits="userSpaceOnUse" color-interpolation-filters="sRGB">
<feFlood flood-opacity="0" result="BackgroundImageFix"/>
<feBlend mode="normal" in="SourceGraphic" in2="BackgroundImageFix" result="shape"/>
<feGaussianBlur stdDeviation="19.1633" result="effect1_foregroundBlur_380_5799"/>
</filter>
<filter id="filter17_f_380_5799" x="163.849" y="44.0893" width="258.733" height="258.733" filterUnits="userSpaceOnUse" color-interpolation-filters="sRGB">
<feFlood flood-opacity="0" result="BackgroundImageFix"/>
<feBlend mode="normal" in="SourceGraphic" in2="BackgroundImageFix" result="shape"/>
<feGaussianBlur stdDeviation="19.1633" result="effect1_foregroundBlur_380_5799"/>
</filter>
<filter id="filter18_f_380_5799" x="329.5" y="-181.696" width="411.946" height="351.836" filterUnits="userSpaceOnUse" color-interpolation-filters="sRGB">
<feFlood flood-opacity="0" result="BackgroundImageFix"/>
<feBlend mode="normal" in="SourceGraphic" in2="BackgroundImageFix" result="shape"/>
<feGaussianBlur stdDeviation="19.1633" result="effect1_foregroundBlur_380_5799"/>
</filter>
<filter id="filter19_f_380_5799" x="323.371" y="50.938" width="220.062" height="220.062" filterUnits="userSpaceOnUse" color-interpolation-filters="sRGB">
<feFlood flood-opacity="0" result="BackgroundImageFix"/>
<feBlend mode="normal" in="SourceGraphic" in2="BackgroundImageFix" result="shape"/>
<feGaussianBlur stdDeviation="19.1633" result="effect1_foregroundBlur_380_5799"/>
</filter>
<filter id="filter20_f_380_5799" x="345.929" y="-3.44483" width="236.778" height="185.418" filterUnits="userSpaceOnUse" color-interpolation-filters="sRGB">
<feFlood flood-opacity="0" result="BackgroundImageFix"/>
<feBlend mode="normal" in="SourceGraphic" in2="BackgroundImageFix" result="shape"/>
<feGaussianBlur stdDeviation="19.1633" result="effect1_foregroundBlur_380_5799"/>
</filter>
<filter id="filter21_f_380_5799" x="243.394" y="100.924" width="160.179" height="145.205" filterUnits="userSpaceOnUse" color-interpolation-filters="sRGB">
<feFlood flood-opacity="0" result="BackgroundImageFix"/>
<feBlend mode="normal" in="SourceGraphic" in2="BackgroundImageFix" result="shape"/>
<feGaussianBlur stdDeviation="19.1633" result="effect1_foregroundBlur_380_5799"/>
</filter>
<filter id="filter22_f_380_5799" x="287.519" y="-75.7524" width="258.733" height="258.733" filterUnits="userSpaceOnUse" color-interpolation-filters="sRGB">
<feFlood flood-opacity="0" result="BackgroundImageFix"/>
<feBlend mode="normal" in="SourceGraphic" in2="BackgroundImageFix" result="shape"/>
<feGaussianBlur stdDeviation="19.1633" result="effect1_foregroundBlur_380_5799"/>
</filter>
<filter id="filter23_f_380_5799" x="59.7383" y="72.9102" width="160.732" height="150.075" filterUnits="userSpaceOnUse" color-interpolation-filters="sRGB">
<feFlood flood-opacity="0" result="BackgroundImageFix"/>
<feBlend mode="normal" in="SourceGraphic" in2="BackgroundImageFix" result="shape"/>
<feGaussianBlur stdDeviation="17.5" result="effect1_foregroundBlur_380_5799"/>
</filter>
<filter id="filter24_ii_380_5799" x="49" y="54" width="321" height="316" filterUnits="userSpaceOnUse" color-interpolation-filters="sRGB">
<feFlood flood-opacity="0" result="BackgroundImageFix"/>
<feBlend mode="normal" in="SourceGraphic" in2="BackgroundImageFix" result="shape"/>
<feColorMatrix in="SourceAlpha" type="matrix" values="0 0 0 0 0 0 0 0 0 0 0 0 0 0 0 0 0 0 127 0" result="hardAlpha"/>
<feOffset/>
<feGaussianBlur stdDeviation="18.25"/>
<feComposite in2="hardAlpha" operator="arithmetic" k2="-1" k3="1"/>
<feColorMatrix type="matrix" values="0 0 0 0 0.958477 0 0 0 0 0.958477 0 0 0 0 0.958477 0 0 0 0.7 0"/>
<feBlend mode="normal" in2="shape" result="effect1_innerShadow_380_5799"/>
<feColorMatrix in="SourceAlpha" type="matrix" values="0 0 0 0 0 0 0 0 0 0 0 0 0 0 0 0 0 0 127 0" result="hardAlpha"/>
<feOffset dx="-23" dy="-16"/>
<feGaussianBlur stdDeviation="10.5"/>
<feComposite in2="hardAlpha" operator="arithmetic" k2="-1" k3="1"/>
<feColorMatrix type="matrix" values="0 0 0 0 1 0 0 0 0 1 0 0 0 0 1 0 0 0 0.25 0"/>
<feBlend mode="normal" in2="effect1_innerShadow_380_5799" result="effect2_innerShadow_380_5799"/>
</filter>
<filter id="filter25_f_380_5799" x="53.3501" y="53.3501" width="333.206" height="333.205" filterUnits="userSpaceOnUse" color-interpolation-filters="sRGB">
<feFlood flood-opacity="0" result="BackgroundImageFix"/>
<feBlend mode="normal" in="SourceGraphic" in2="BackgroundImageFix" result="shape"/>
<feGaussianBlur stdDeviation="8.32493" result="effect1_foregroundBlur_380_5799"/>
</filter>
<filter id="filter26_f_380_5799" x="260.502" y="186.564" width="211.527" height="211.526" filterUnits="userSpaceOnUse" color-interpolation-filters="sRGB">
<feFlood flood-opacity="0" result="BackgroundImageFix"/>
<feBlend mode="normal" in="SourceGraphic" in2="BackgroundImageFix" result="shape"/>
<feGaussianBlur stdDeviation="20.7783" result="effect1_foregroundBlur_380_5799"/>
</filter>
<filter id="filter27_f_380_5799" x="89.7207" y="24.9561" width="405.894" height="405.893" filterUnits="userSpaceOnUse" color-interpolation-filters="sRGB">
<feFlood flood-opacity="0" result="BackgroundImageFix"/>
<feBlend mode="normal" in="SourceGraphic" in2="BackgroundImageFix" result="shape"/>
<feGaussianBlur stdDeviation="20.7783" result="effect1_foregroundBlur_380_5799"/>
</filter>
<filter id="filter28_f_380_5799" x="-102.898" y="-81.3994" width="358.721" height="358.722" filterUnits="userSpaceOnUse" color-interpolation-filters="sRGB">
<feFlood flood-opacity="0" result="BackgroundImageFix"/>
<feBlend mode="normal" in="SourceGraphic" in2="BackgroundImageFix" result="shape"/>
<feGaussianBlur stdDeviation="20.7783" result="effect1_foregroundBlur_380_5799"/>
</filter>
<filter id="filter29_f_380_5799" x="215.078" y="-42.3076" width="280.537" height="280.538" filterUnits="userSpaceOnUse" color-interpolation-filters="sRGB">
<feFlood flood-opacity="0" result="BackgroundImageFix"/>
<feBlend mode="normal" in="SourceGraphic" in2="BackgroundImageFix" result="shape"/>
<feGaussianBlur stdDeviation="20.7783" result="effect1_foregroundBlur_380_5799"/>
</filter>
<filter id="filter30_f_380_5799" x="-130.658" y="101.558" width="446.664" height="381.485" filterUnits="userSpaceOnUse" color-interpolation-filters="sRGB">
<feFlood flood-opacity="0" result="BackgroundImageFix"/>
<feBlend mode="normal" in="SourceGraphic" in2="BackgroundImageFix" result="shape"/>
<feGaussianBlur stdDeviation="20.7783" result="effect1_foregroundBlur_380_5799"/>
</filter>
<filter id="filter31_f_380_5799" x="84.043" y="-7.80171" width="238.607" height="238.607" filterUnits="userSpaceOnUse" color-interpolation-filters="sRGB">
<feFlood flood-opacity="0" result="BackgroundImageFix"/>
<feBlend mode="normal" in="SourceGraphic" in2="BackgroundImageFix" result="shape"/>
<feGaussianBlur stdDeviation="20.7783" result="effect1_foregroundBlur_380_5799"/>
</filter>
<filter id="filter32_f_380_5799" x="-77.1289" y="194.209" width="187.504" height="187.504" filterUnits="userSpaceOnUse" color-interpolation-filters="sRGB">
<feFlood flood-opacity="0" result="BackgroundImageFix"/>
<feBlend mode="normal" in="SourceGraphic" in2="BackgroundImageFix" result="shape"/>
<feGaussianBlur stdDeviation="20.7783" result="effect1_foregroundBlur_380_5799"/>
</filter>
<filter id="filter33_f_380_5799" x="-69.4863" y="-34.4453" width="187.504" height="187.504" filterUnits="userSpaceOnUse" color-interpolation-filters="sRGB">
<feFlood flood-opacity="0" result="BackgroundImageFix"/>
<feBlend mode="normal" in="SourceGraphic" in2="BackgroundImageFix" result="shape"/>
<feGaussianBlur stdDeviation="20.7783" result="effect1_foregroundBlur_380_5799"/>
</filter>
<filter id="filter34_f_380_5799" x="41.4551" y="88.7266" width="256.734" height="201.044" filterUnits="userSpaceOnUse" color-interpolation-filters="sRGB">
<feFlood flood-opacity="0" result="BackgroundImageFix"/>
<feBlend mode="normal" in="SourceGraphic" in2="BackgroundImageFix" result="shape"/>
<feGaussianBlur stdDeviation="20.7783" result="effect1_foregroundBlur_380_5799"/>
</filter>
<filter id="filter35_f_380_5799" x="235.689" y="19.1631" width="173.68" height="157.442" filterUnits="userSpaceOnUse" color-interpolation-filters="sRGB">
<feFlood flood-opacity="0" result="BackgroundImageFix"/>
<feBlend mode="normal" in="SourceGraphic" in2="BackgroundImageFix" result="shape"/>
<feGaussianBlur stdDeviation="20.7783" result="effect1_foregroundBlur_380_5799"/>
</filter>
<filter id="filter36_f_380_5799" x="80.9864" y="87.6338" width="280.537" height="280.538" filterUnits="userSpaceOnUse" color-interpolation-filters="sRGB">
<feFlood flood-opacity="0" result="BackgroundImageFix"/>
<feBlend mode="normal" in="SourceGraphic" in2="BackgroundImageFix" result="shape"/>
<feGaussianBlur stdDeviation="20.7783" result="effect1_foregroundBlur_380_5799"/>
</filter>
<filter id="filter37_i_380_5799" x="279.787" y="70.0947" width="90.2129" height="129.913" filterUnits="userSpaceOnUse" color-interpolation-filters="sRGB">
<feFlood flood-opacity="0" result="BackgroundImageFix"/>
<feBlend mode="normal" in="SourceGraphic" in2="BackgroundImageFix" result="shape"/>
<feColorMatrix in="SourceAlpha" type="matrix" values="0 0 0 0 0 0 0 0 0 0 0 0 0 0 0 0 0 0 127 0" result="hardAlpha"/>
<feOffset dy="0.763849"/>
<feGaussianBlur stdDeviation="0.381925"/>
<feComposite in2="hardAlpha" operator="arithmetic" k2="-1" k3="1"/>
<feColorMatrix type="matrix" values="0 0 0 0 0 0 0 0 0 0 0 0 0 0 0 0 0 0 0.25 0"/>
<feBlend mode="normal" in2="shape" result="effect1_innerShadow_380_5799"/>
</filter>
<filter id="filter38_f_380_5799" x="179.787" y="-177.352" width="476.596" height="476.596" filterUnits="userSpaceOnUse" color-interpolation-filters="sRGB">
<feFlood flood-opacity="0" result="BackgroundImageFix"/>
<feBlend mode="normal" in="SourceGraphic" in2="BackgroundImageFix" result="shape"/>
<feGaussianBlur stdDeviation="19.5" result="effect1_foregroundBlur_380_5799"/>
</filter>
<filter id="filter39_f_380_5799" x="185.601" y="-103.347" width="195.087" height="195.086" filterUnits="userSpaceOnUse" color-interpolation-filters="sRGB">
<feFlood flood-opacity="0" result="BackgroundImageFix"/>
<feBlend mode="normal" in="SourceGraphic" in2="BackgroundImageFix" result="shape"/>
<feGaussianBlur stdDeviation="19.1633" result="effect1_foregroundBlur_380_5799"/>
</filter>
<filter id="filter40_f_380_5799" x="163.849" y="-133.56" width="374.347" height="374.347" filterUnits="userSpaceOnUse" color-interpolation-filters="sRGB">
<feFlood flood-opacity="0" result="BackgroundImageFix"/>
<feBlend mode="normal" in="SourceGraphic" in2="BackgroundImageFix" result="shape"/>
<feGaussianBlur stdDeviation="19.1633" result="effect1_foregroundBlur_380_5799"/>
</filter>
<filter id="filter41_f_380_5799" x="163.849" y="44.0893" width="258.733" height="258.733" filterUnits="userSpaceOnUse" color-interpolation-filters="sRGB">
<feFlood flood-opacity="0" result="BackgroundImageFix"/>
<feBlend mode="normal" in="SourceGraphic" in2="BackgroundImageFix" result="shape"/>
<feGaussianBlur stdDeviation="19.1633" result="effect1_foregroundBlur_380_5799"/>
</filter>
<filter id="filter42_f_380_5799" x="329.5" y="-181.696" width="411.946" height="351.836" filterUnits="userSpaceOnUse" color-interpolation-filters="sRGB">
<feFlood flood-opacity="0" result="BackgroundImageFix"/>
<feBlend mode="normal" in="SourceGraphic" in2="BackgroundImageFix" result="shape"/>
<feGaussianBlur stdDeviation="19.1633" result="effect1_foregroundBlur_380_5799"/>
</filter>
<filter id="filter43_f_380_5799" x="323.371" y="50.938" width="220.062" height="220.062" filterUnits="userSpaceOnUse" color-interpolation-filters="sRGB">
<feFlood flood-opacity="0" result="BackgroundImageFix"/>
<feBlend mode="normal" in="SourceGraphic" in2="BackgroundImageFix" result="shape"/>
<feGaussianBlur stdDeviation="19.1633" result="effect1_foregroundBlur_380_5799"/>
</filter>
<filter id="filter44_f_380_5799" x="345.929" y="-3.44483" width="236.778" height="185.418" filterUnits="userSpaceOnUse" color-interpolation-filters="sRGB">
<feFlood flood-opacity="0" result="BackgroundImageFix"/>
<feBlend mode="normal" in="SourceGraphic" in2="BackgroundImageFix" result="shape"/>
<feGaussianBlur stdDeviation="19.1633" result="effect1_foregroundBlur_380_5799"/>
</filter>
<filter id="filter45_f_380_5799" x="243.394" y="100.924" width="160.179" height="145.205" filterUnits="userSpaceOnUse" color-interpolation-filters="sRGB">
<feFlood flood-opacity="0" result="BackgroundImageFix"/>
<feBlend mode="normal" in="SourceGraphic" in2="BackgroundImageFix" result="shape"/>
<feGaussianBlur stdDeviation="19.1633" result="effect1_foregroundBlur_380_5799"/>
</filter>
<filter id="filter46_f_380_5799" x="287.519" y="-75.7524" width="258.733" height="258.733" filterUnits="userSpaceOnUse" color-interpolation-filters="sRGB">
<feFlood flood-opacity="0" result="BackgroundImageFix"/>
<feBlend mode="normal" in="SourceGraphic" in2="BackgroundImageFix" result="shape"/>
<feGaussianBlur stdDeviation="19.1633" result="effect1_foregroundBlur_380_5799"/>
</filter>
<filter id="filter47_f_380_5799" x="59.7383" y="72.9102" width="160.732" height="150.075" filterUnits="userSpaceOnUse" color-interpolation-filters="sRGB">
<feFlood flood-opacity="0" result="BackgroundImageFix"/>
<feBlend mode="normal" in="SourceGraphic" in2="BackgroundImageFix" result="shape"/>
<feGaussianBlur stdDeviation="17.5" result="effect1_foregroundBlur_380_5799"/>
</filter>
</defs>
</svg>
