<svg width="335" height="615" viewBox="0 0 335 615" fill="none" xmlns="http://www.w3.org/2000/svg">
<path d="M305.929 38.9917L307.297 42.9251L310.375 46.6875L311.914 49.4238L312.256 52.331L313.624 54.0412L311.23 55.9224L307.981 54.8963L302.68 54.2122L295.84 59.8558L292.077 61.908L289.341 67.5515L284.04 70.8008L281.133 74.2212L277.371 80.3778L274.806 86.1923L268.992 92.1779L265.572 99.7027V106.201L268.992 112.7L269.334 118.343L266.769 129.802L268.137 141.944L266.598 146.732L248.984 154.941L244.367 159.045L237.869 169.648L230.002 173.582L225.043 177.857L218.203 180.423L213.928 187.947L209.14 192.223L203.497 194.788L199.221 198.037H189.645L182.976 200.602L178.188 206.759L163.823 213.942L161.942 219.243L162.968 227.452V233.78L161.771 238.91L158.693 237.542L156.983 239.252L155.102 244.041L155.615 249.513L160.574 251.223L164.507 253.447L170.15 254.644L174.255 257.209L183.147 268.667L190.329 273.627L192.21 275.508L196.314 278.073L200.076 282.006L202.299 285.598L200.589 286.624L197.682 291.754L194.946 298.253L192.381 301.844L189.474 303.726L186.225 304.923L179.727 305.436L173.913 304.923L172.032 304.239L163.994 304.581L161.771 305.094L150.314 304.581L144.329 305.094L140.566 306.291L136.633 308.856L133.213 312.789L130.306 317.065L124.321 324.761L120.217 328.523V333.995V335.706L118.678 336.903L118.165 336.39L115.771 336.048L106.023 331.088L97.9861 334.167L95.934 338.1L93.8819 339.297L90.6328 331.601H85.5027L77.2944 324.59L73.7033 325.958L72.8483 328.694L68.2311 334.851L61.9039 339.981L59.8518 340.665L57.4577 340.323L57.7998 338.955L55.2347 333.14L45.1453 330.746L41.5542 328.352L39.6732 327.839L49.4205 321.34L51.9856 320.143L50.1045 318.604L48.0524 317.92L40.0152 318.946L35.74 316.894L29.5838 317.578L25.3087 315.868L34.201 309.54L34.543 305.778V302.87L38.9891 294.491L43.4353 289.873L55.0637 283.204L60.1938 282.348L63.956 282.69L67.0341 282.006L63.956 279.441L60.8779 278.244H54.8927L48.7365 274.653L48.2234 270.548L60.3648 244.896V242.502L58.6548 236.174L57.9708 230.017L49.2495 226.426L45.4874 226.084L34.372 219.243L29.9258 215.823L28.2158 216.849L27.8738 222.322L26.3347 223.519L23.4276 224.545L21.8886 218.217L19.4945 213.6L12.1413 208.982L9.57617 206.417L10.7732 200.773L10.0892 200.26L11.2862 193.933L15.9034 189.144L27.0187 180.594L29.9258 176.489L35.569 171.701H38.1341L40.6992 171.359L41.5542 169.306L42.0672 167.596L44.2903 166.057L49.7625 163.492L55.9187 160.072L60.8779 159.045L66.8631 153.915L69.2571 151.692H71.8222L72.5062 150.666L73.8743 147.929L75.7553 146.219L78.4914 145.877L82.9376 144.509L88.4098 143.654L92.1719 139.208L93.3689 136.129L95.934 132.709L101.235 128.947L104.826 123.303L108.759 117.146L110.64 115.265L112.522 114.923L113.548 112.7L114.916 106.201L116.797 99.8737L117.823 96.9664L122.44 93.7171L123.637 92.1779L124.663 91.6649L126.715 92.0069L129.622 90.1257L132.358 88.0735L134.752 88.7576L137.317 90.4678L139.882 93.8881L141.079 96.6244L143.132 99.0186L143.474 102.439L145.526 103.978L149.972 104.662L157.154 107.056H161.771L164.507 108.938L169.979 109.793L181.095 108.425L185.712 109.28L187.593 111.332L190.329 113.042H192.21L194.604 110.306L197.169 105.688L198.879 102.097V99.1896L197.34 96.1113L193.749 93.204L191.355 88.7576L189.132 84.1401L187.764 82.601L186.738 80.3778V76.9574L187.251 74.5632L192.723 73.0241L199.734 72.169L205.549 73.1951L215.125 72.511L220.939 71.1429H225.385H229.318L231.028 69.2617L236.672 64.4732L239.408 62.7631L242.315 59.5137L242.828 56.0934L243.341 53.3571L245.051 50.4499L247.958 46.8585L250.523 45.1483H253.259L256.166 47.0295L258.047 48.7397L260.099 48.2266L261.809 45.3194L263.006 44.8063L266.427 44.4643L267.453 42.7541L268.821 34.3743L270.189 27.7046L270.531 23.0872L273.438 15.3914L274.464 10.774L276.174 8.55078H278.226L279.936 10.0899L282.159 10.945L285.066 10.2609L287.118 11.4581L288.315 14.0233L292.59 15.7335L292.932 16.9306V25.3104L295.156 29.2438L298.234 32.8351L302.509 36.0845L304.903 36.7685L306.442 39.1628L305.929 38.9917ZM36.082 229.162L33.346 230.872V227.623L35.227 224.887L37.4501 224.545L36.082 228.991V229.162Z" stroke="#919191" stroke-opacity="0.3" stroke-miterlimit="10"/>
<path d="M119.02 336.561L120.559 335.364V333.653V328.181L124.663 324.419L130.648 316.723L133.555 312.447L136.975 308.514L140.908 305.949L144.671 304.752L150.656 304.239L162.113 304.752L164.336 304.239L172.373 303.897L174.255 304.581L180.069 305.094L186.567 304.581L189.816 303.383L192.723 301.502L195.288 297.911L198.024 291.412L200.931 286.282L202.641 285.256L214.441 312.618L225.727 330.233L235.304 342.888L248.984 367.173L252.917 380.17L253.259 388.208L255.482 399.153L253.601 405.48L254.114 415.399L253.259 420.53L251.549 424.292V431.475L252.062 435.237V440.368L253.259 442.249L254.798 442.933L257.363 441.052L260.441 440.197L259.928 446.353L256.337 461.745L253.088 472.861L248.813 482.609L243.341 491.502L236.672 494.922L232.054 496.119L223.162 496.632L215.809 495.093L209.482 496.119L206.917 498L205.036 501.079L206.404 506.038V509.63L203.496 509.288L198.195 507.235L192.21 506.893L189.474 505.867L186.738 500.737H183.831L178.872 503.986L171.347 504.67L168.611 506.38L167.585 508.432L168.611 511.169L172.373 514.76L171.005 518.351L167.072 520.062L163.823 515.615L161.771 511.34H159.548L156.128 512.366L155.444 516.983L156.983 520.062L159.719 523.653L155.957 527.928L154.931 531.007L152.195 533.23L145.013 528.441L146.039 525.021L149.117 521.772L149.459 518.351L148.433 516.299L138.001 524.85L131.674 534.598L128.254 533.914L126.886 531.349L124.834 530.323L117.994 536.65L116.797 541.61H114.232L113.035 539.729V535.282L111.837 531.52L104.655 526.047L101.406 521.259L103.116 518.522L109.101 520.062H113.89L113.035 517.496L111.495 516.47L114.574 515.102L117.139 512.537L114.916 511.853L111.666 513.392L108.93 512.708L107.904 506.38L104.484 499.882L102.774 493.554L106.194 489.963L107.904 484.319L110.982 476.11L112.522 473.374L116.797 471.493L118.336 469.441L115.942 468.415L112.18 467.388V464.994L114.916 463.626L117.823 461.061L123.295 457.812L125.005 451.655L123.466 450.116L120.046 448.748L120.901 445.669L122.269 443.275L121.756 441.907L117.652 437.974L114.916 434.382L115.771 430.278L115.087 424.121L115.429 418.82V415.912L113.206 409.414L112.351 402.915L109.785 403.77L107.733 405.309L100.209 403.086H97.815L96.789 398.127L99.5251 392.141L106.023 387.011L109.785 386.327L112.522 384.103L116.968 383.419L122.269 387.011L126.886 387.695L129.451 393.851L130.99 395.219L131.332 392.996L135.094 390.431L135.949 388.379L135.094 387.353L130.648 386.327L126.715 378.802L126.202 375.382L124.834 373.329L126.886 367.173L122.269 360.161L120.046 357.938L120.388 351.61L117.994 347.677L116.626 345.454L115.771 341.691L116.455 339.981L118.507 339.297L119.02 337.587V336.561ZM113.719 339.297V347.335L110.811 346.993L109.101 346.138L108.417 344.599L106.536 337.245L108.588 334.167L112.522 336.561L113.89 339.297H113.719ZM324.568 354.86L322.345 356.57L319.78 354.86L319.438 352.978L320.806 351.268L323.884 350.242L325.424 351.61L324.568 354.688V354.86ZM108.759 413.86L108.075 417.794L104.826 415.228L103.971 406.849L107.22 409.243L108.759 413.86ZM220.255 513.563L215.638 517.154L209.482 512.366L207.943 509.801L212.56 505.867L216.493 501.421L219.058 501.079L219.913 513.563H220.255ZM187.764 513.05L187.251 518.693L183.831 519.036L181.779 515.444L179.556 517.154H178.359L176.649 512.708L176.307 509.117L180.24 506.38L182.634 508.09L186.054 508.946L187.422 513.221L187.764 513.05ZM96.96 517.496L96.276 518.864L94.2239 518.522L92.0008 514.589L91.1458 511.34L89.0938 509.63L92.5139 506.893L96.789 511.853V517.496H96.96ZM174.939 524.166L174.426 526.047L172.031 523.311L174.426 520.404L174.939 524.337V524.166ZM99.8671 538.36L96.789 539.215L95.0789 537.163L93.8819 536.65L94.5659 534.085L99.5251 528.954L100.551 527.244L105.168 528.27L106.878 531.007L104.826 535.111L99.8671 538.36ZM124.834 539.9L125.689 542.636L121.756 542.123L119.704 539.557L120.046 537.334L122.44 536.992L125.005 540.071L124.834 539.9ZM104.313 604.373L102.09 605.57L100.038 604.886L99.5251 604.202L97.131 600.952L96.447 599.242L97.986 595.993L104.655 590.691L121.756 585.561H124.834L131.674 587.442L133.213 591.547L132.016 595.138L130.477 597.532L122.611 601.465L116.455 603.347L104.142 604.202L104.313 604.373Z" stroke="#919191" stroke-opacity="0.3" stroke-miterlimit="10"/>
</svg>
