<svg width="197" height="23" viewBox="0 0 197 23" fill="none" xmlns="http://www.w3.org/2000/svg">
<path d="M4.32422 8.8916C3.45703 8.8916 2.71289 8.79785 2.0918 8.61035C1.4707 8.41895 0.982422 8.14551 0.626953 7.79004C0.275391 7.43066 0.0683594 7.00293 0.00585938 6.50684L0 6.43652H0.896484L0.908203 6.50098C0.974609 6.84082 1.14844 7.13184 1.42969 7.37402C1.71484 7.6123 2.10352 7.7959 2.5957 7.9248C3.0918 8.0498 3.68555 8.1123 4.37695 8.1123C4.99023 8.1123 5.51367 8.04395 5.94727 7.90723C6.38477 7.77051 6.71875 7.5752 6.94922 7.32129C7.18359 7.06738 7.30078 6.76855 7.30078 6.4248V6.41895C7.30078 5.97363 7.12695 5.63574 6.7793 5.40527C6.43555 5.1748 5.85352 5.0127 5.0332 4.91895L3.09961 4.7373C2.11133 4.62402 1.38281 4.38965 0.914062 4.03418C0.449219 3.67871 0.216797 3.18066 0.216797 2.54004V2.52832C0.216797 2.04395 0.369141 1.62207 0.673828 1.2627C0.978516 0.899414 1.41016 0.618164 1.96875 0.418945C2.53125 0.219727 3.19531 0.120117 3.96094 0.120117C4.76953 0.120117 5.4668 0.21582 6.05273 0.407227C6.63867 0.598633 7.10156 0.87207 7.44141 1.22754C7.78125 1.58301 7.98047 2.00293 8.03906 2.4873L8.05078 2.5459H7.1543L7.14258 2.4873C7.06445 2.15137 6.89453 1.86621 6.63281 1.63184C6.375 1.39355 6.02148 1.21191 5.57227 1.08691C5.12695 0.961914 4.58594 0.899414 3.94922 0.899414C3.35938 0.899414 2.85352 0.963867 2.43164 1.09277C2.00977 1.22168 1.68555 1.40723 1.45898 1.64941C1.23633 1.8877 1.125 2.17285 1.125 2.50488V2.51074C1.125 2.92871 1.29492 3.24902 1.63477 3.47168C1.97852 3.69434 2.53125 3.85059 3.29297 3.94043L5.22656 4.11621C5.92578 4.19824 6.49414 4.33105 6.93164 4.51465C7.36914 4.69434 7.69141 4.93652 7.89844 5.24121C8.10547 5.54199 8.20898 5.91504 8.20898 6.36035V6.36621C8.20898 6.89355 8.05469 7.34668 7.74609 7.72559C7.44141 8.10059 7 8.38965 6.42188 8.59277C5.84375 8.79199 5.14453 8.8916 4.32422 8.8916Z" fill="#EFEFEF"/>
<path d="M13.298 8.8623C12.5636 8.8623 11.9152 8.72754 11.3527 8.45801C10.7941 8.18848 10.3585 7.80957 10.046 7.32129C9.73352 6.8291 9.57727 6.24902 9.57727 5.58105V5.56348C9.57727 4.89551 9.73352 4.31738 10.046 3.8291C10.3585 3.33691 10.7941 2.95801 11.3527 2.69238C11.9152 2.42285 12.5636 2.28809 13.298 2.28809C14.0363 2.28809 14.6847 2.42285 15.2433 2.69238C15.8019 2.95801 16.2374 3.33691 16.5499 3.8291C16.8624 4.31738 17.0187 4.89551 17.0187 5.56348V5.58105C17.0187 6.24902 16.8624 6.8291 16.5499 7.32129C16.2374 7.80957 15.8019 8.18848 15.2433 8.45801C14.6847 8.72754 14.0363 8.8623 13.298 8.8623ZM13.298 8.12402C13.8605 8.12402 14.3546 8.02246 14.7804 7.81934C15.2062 7.6123 15.5382 7.31934 15.7765 6.94043C16.0148 6.56152 16.1339 6.1084 16.1339 5.58105V5.56348C16.1339 5.03613 16.0148 4.58301 15.7765 4.2041C15.5382 3.8252 15.2062 3.53418 14.7804 3.33105C14.3546 3.12402 13.8605 3.02051 13.298 3.02051C12.7394 3.02051 12.2452 3.12402 11.8155 3.33105C11.3898 3.53418 11.0558 3.8252 10.8136 4.2041C10.5753 4.58301 10.4562 5.03613 10.4562 5.56348V5.58105C10.4562 6.1084 10.5753 6.56152 10.8136 6.94043C11.0558 7.31934 11.3898 7.6123 11.8155 7.81934C12.2452 8.02246 12.7394 8.12402 13.298 8.12402Z" fill="#EFEFEF"/>
<path d="M22.137 10.9717C21.5354 10.9717 21.0002 10.9053 20.5315 10.7725C20.0627 10.6436 19.676 10.4561 19.3713 10.21C19.0666 9.96777 18.8518 9.67676 18.7268 9.33691L18.7092 9.2959H19.676L19.6936 9.3252C19.8577 9.61035 20.1467 9.83691 20.5608 10.0049C20.9788 10.1729 21.5061 10.2568 22.1428 10.2568C23.0413 10.2568 23.7268 10.0791 24.1995 9.72363C24.6721 9.36816 24.9084 8.8584 24.9084 8.19434V7.16895H24.8674C24.7073 7.48145 24.4827 7.75293 24.1936 7.9834C23.9045 8.21387 23.5627 8.39355 23.1682 8.52246C22.7776 8.64746 22.3459 8.70996 21.8733 8.70996C21.1702 8.70996 20.5588 8.57324 20.0393 8.2998C19.5237 8.02246 19.1213 7.64355 18.8323 7.16309C18.5471 6.67871 18.4045 6.12793 18.4045 5.51074V5.49902C18.4045 4.87402 18.5471 4.32129 18.8323 3.84082C19.1213 3.35645 19.5256 2.97559 20.0452 2.69824C20.5647 2.4209 21.176 2.28223 21.8791 2.28223C22.3518 2.28223 22.7834 2.34863 23.1741 2.48145C23.5686 2.61426 23.9104 2.7998 24.1995 3.03809C24.4885 3.27246 24.7112 3.5459 24.8674 3.8584H24.9026V2.41113H25.7698V8.24707C25.7698 8.81738 25.6252 9.30566 25.3362 9.71191C25.051 10.1182 24.6389 10.4287 24.0998 10.6436C23.5608 10.8623 22.9065 10.9717 22.137 10.9717ZM22.0842 7.9834C22.6545 7.9834 23.1506 7.87988 23.5725 7.67285C23.9983 7.46191 24.3264 7.1709 24.5569 6.7998C24.7913 6.42871 24.9084 5.99902 24.9084 5.51074V5.49902C24.9084 5.01074 24.7913 4.58105 24.5569 4.20996C24.3264 3.83496 23.9983 3.54199 23.5725 3.33105C23.1506 3.12012 22.6545 3.01465 22.0842 3.01465C21.5178 3.01465 21.0256 3.11816 20.6077 3.3252C20.1897 3.52832 19.8655 3.81543 19.635 4.18652C19.4045 4.55762 19.2893 4.99316 19.2893 5.49316V5.50488C19.2893 6.00879 19.4045 6.44629 19.635 6.81738C19.8655 7.18457 20.1897 7.47168 20.6077 7.67871C21.0256 7.88184 21.5178 7.9834 22.0842 7.9834Z" fill="#EFEFEF"/>
<path d="M30.2318 8.85059C29.6654 8.85059 29.1693 8.77637 28.7435 8.62793C28.3216 8.47949 27.9916 8.26074 27.7533 7.97168C27.5189 7.68262 27.4017 7.33105 27.4017 6.91699V6.90527C27.4017 6.54199 27.4955 6.22949 27.683 5.96777C27.8705 5.70605 28.1576 5.50293 28.5443 5.3584C28.931 5.20996 29.4252 5.12598 30.0267 5.10645L33.6068 5.01855V5.65723L30.1263 5.75684C29.4857 5.77246 29.017 5.87598 28.7201 6.06738C28.4271 6.25879 28.2806 6.53027 28.2806 6.88184V6.89355C28.2806 7.2998 28.472 7.61035 28.8548 7.8252C29.2416 8.04004 29.7455 8.14746 30.3666 8.14746C30.9252 8.14746 31.4154 8.06348 31.8373 7.89551C32.2591 7.72363 32.5873 7.4873 32.8216 7.18652C33.056 6.88574 33.1732 6.53613 33.1732 6.1377V4.71387C33.1732 4.15918 32.974 3.7373 32.5755 3.44824C32.1771 3.15918 31.6127 3.01465 30.8822 3.01465C30.2455 3.01465 29.7259 3.12207 29.3236 3.33691C28.9212 3.54785 28.6634 3.84277 28.5502 4.22168L28.5384 4.2627H27.683L27.6888 4.21582C27.767 3.8291 27.9466 3.49121 28.2279 3.20215C28.5091 2.91309 28.8763 2.68848 29.3295 2.52832C29.7826 2.36816 30.3021 2.28809 30.888 2.28809C31.5521 2.28809 32.1205 2.38184 32.5931 2.56934C33.0658 2.75684 33.4252 3.02832 33.6712 3.38379C33.9173 3.73926 34.0404 4.1709 34.0404 4.67871V8.7334H33.1732V7.45605H33.1322C32.9837 7.74121 32.767 7.98926 32.4818 8.2002C32.2005 8.41113 31.8666 8.57324 31.4798 8.68652C31.097 8.7959 30.681 8.85059 30.2318 8.85059Z" fill="#EFEFEF"/>
<path d="M36.0298 8.7334V2.41113H36.897V3.8877H36.938C37.1606 3.3877 37.518 2.99512 38.0102 2.70996C38.5024 2.4248 39.0864 2.28223 39.7622 2.28223C40.6997 2.28223 41.4263 2.54004 41.9419 3.05566C42.4614 3.57129 42.7212 4.2959 42.7212 5.22949V8.7334H41.854V5.37012C41.854 4.6084 41.6567 4.02637 41.2622 3.62402C40.8716 3.22168 40.3013 3.02051 39.5513 3.02051C39.02 3.02051 38.5552 3.12598 38.1567 3.33691C37.7583 3.54785 37.4477 3.84277 37.2251 4.22168C37.0063 4.60059 36.897 5.0459 36.897 5.55762V8.7334H36.0298Z" fill="#EFEFEF"/>
<path d="M48.0973 10.9717C47.4957 10.9717 46.9605 10.9053 46.4918 10.7725C46.023 10.6436 45.6363 10.4561 45.3316 10.21C45.027 9.96777 44.8121 9.67676 44.6871 9.33691L44.6695 9.2959H45.6363L45.6539 9.3252C45.818 9.61035 46.107 9.83691 46.5211 10.0049C46.9391 10.1729 47.4664 10.2568 48.1031 10.2568C49.0016 10.2568 49.6871 10.0791 50.1598 9.72363C50.6324 9.36816 50.8688 8.8584 50.8688 8.19434V7.16895H50.8277C50.6676 7.48145 50.443 7.75293 50.1539 7.9834C49.8648 8.21387 49.523 8.39355 49.1285 8.52246C48.7379 8.64746 48.3063 8.70996 47.8336 8.70996C47.1305 8.70996 46.5191 8.57324 45.9996 8.2998C45.484 8.02246 45.0816 7.64355 44.7926 7.16309C44.5074 6.67871 44.3648 6.12793 44.3648 5.51074V5.49902C44.3648 4.87402 44.5074 4.32129 44.7926 3.84082C45.0816 3.35645 45.4859 2.97559 46.0055 2.69824C46.525 2.4209 47.1363 2.28223 47.8395 2.28223C48.3121 2.28223 48.7438 2.34863 49.1344 2.48145C49.5289 2.61426 49.8707 2.7998 50.1598 3.03809C50.4488 3.27246 50.6715 3.5459 50.8277 3.8584H50.8629V2.41113H51.7301V8.24707C51.7301 8.81738 51.5855 9.30566 51.2965 9.71191C51.0113 10.1182 50.5992 10.4287 50.0602 10.6436C49.5211 10.8623 48.8668 10.9717 48.0973 10.9717ZM48.0445 7.9834C48.6148 7.9834 49.1109 7.87988 49.5328 7.67285C49.9586 7.46191 50.2867 7.1709 50.5172 6.7998C50.7516 6.42871 50.8688 5.99902 50.8688 5.51074V5.49902C50.8688 5.01074 50.7516 4.58105 50.5172 4.20996C50.2867 3.83496 49.9586 3.54199 49.5328 3.33105C49.1109 3.12012 48.6148 3.01465 48.0445 3.01465C47.4781 3.01465 46.9859 3.11816 46.568 3.3252C46.15 3.52832 45.8258 3.81543 45.5953 4.18652C45.3648 4.55762 45.2496 4.99316 45.2496 5.49316V5.50488C45.2496 6.00879 45.3648 6.44629 45.5953 6.81738C45.8258 7.18457 46.15 7.47168 46.568 7.67871C46.9859 7.88184 47.4781 7.9834 48.0445 7.9834Z" fill="#EFEFEF"/>
<path d="M61.3104 8.8916C60.4237 8.8916 59.662 8.73926 59.0252 8.43457C58.3924 8.12598 57.9061 7.68652 57.5662 7.11621C57.2264 6.54199 57.0565 5.8584 57.0565 5.06543V0.27832H57.953V5.03027C57.953 5.6709 58.0838 6.21973 58.3455 6.67676C58.6073 7.13379 58.9881 7.48535 59.4881 7.73145C59.9881 7.97363 60.5955 8.09473 61.3104 8.09473C62.0252 8.09473 62.6327 7.97363 63.1327 7.73145C63.6327 7.48535 64.0135 7.13379 64.2752 6.67676C64.537 6.21973 64.6678 5.6709 64.6678 5.03027V0.27832H65.5643V5.06543C65.5643 5.8584 65.3944 6.54199 65.0545 7.11621C64.7186 7.68652 64.2323 8.12598 63.5955 8.43457C62.9588 8.73926 62.1971 8.8916 61.3104 8.8916Z" fill="#EFEFEF"/>
<path d="M67.6591 8.7334V2.41113H68.5263V3.8877H68.5673C68.79 3.3877 69.1474 2.99512 69.6396 2.70996C70.1318 2.4248 70.7158 2.28223 71.3916 2.28223C72.3291 2.28223 73.0556 2.54004 73.5713 3.05566C74.0908 3.57129 74.3505 4.2959 74.3505 5.22949V8.7334H73.4834V5.37012C73.4834 4.6084 73.2861 4.02637 72.8916 3.62402C72.5009 3.22168 71.9306 3.02051 71.1806 3.02051C70.6494 3.02051 70.1845 3.12598 69.7861 3.33691C69.3877 3.54785 69.0771 3.84277 68.8545 4.22168C68.6357 4.60059 68.5263 5.0459 68.5263 5.55762V8.7334H67.6591Z" fill="#EFEFEF"/>
<path d="M76.3048 8.7334V2.41113H77.172V8.7334H76.3048ZM76.7384 1.22754C76.5782 1.22754 76.4415 1.17285 76.3282 1.06348C76.2149 0.954102 76.1583 0.821289 76.1583 0.665039C76.1583 0.508789 76.2149 0.37793 76.3282 0.272461C76.4415 0.163086 76.5782 0.108398 76.7384 0.108398C76.9063 0.108398 77.045 0.163086 77.1544 0.272461C77.2637 0.37793 77.3184 0.508789 77.3184 0.665039C77.3184 0.821289 77.2637 0.954102 77.1544 1.06348C77.045 1.17285 76.9063 1.22754 76.7384 1.22754Z" fill="#EFEFEF"/>
<path d="M81.757 8.7334L78.5637 2.41113H79.4953L82.2141 7.91895H82.2551L84.9445 2.41113H85.8762L82.7121 8.7334H81.757Z" fill="#EFEFEF"/>
<path d="M90.4261 8.8623C89.6527 8.8623 88.9886 8.73145 88.4339 8.46973C87.8831 8.20801 87.4593 7.83301 87.1624 7.34473C86.8655 6.85645 86.7171 6.26855 86.7171 5.58105V5.5752C86.7171 4.90723 86.8675 4.32715 87.1683 3.83496C87.4691 3.34277 87.8909 2.96191 88.4339 2.69238C88.9808 2.41895 89.6155 2.28418 90.3382 2.28809C91.0765 2.29199 91.7113 2.43066 92.2425 2.7041C92.7738 2.97363 93.182 3.35059 93.4671 3.83496C93.7523 4.31934 93.8948 4.88574 93.8948 5.53418V5.78613L87.1566 5.78027V5.12988H93.3792L93.0394 5.66895V5.41113C93.0394 4.92285 92.93 4.49902 92.7113 4.13965C92.4925 3.78027 92.18 3.50293 91.7738 3.30762C91.3714 3.1123 90.8948 3.01465 90.3441 3.01465C89.7738 3.01465 89.2816 3.1123 88.8675 3.30762C88.4573 3.49902 88.1409 3.78027 87.9183 4.15137C87.6956 4.51855 87.5843 4.96387 87.5843 5.4873V5.63965C87.5843 6.20605 87.7073 6.6748 87.9534 7.0459C88.2034 7.41309 88.5433 7.68652 88.973 7.86621C89.4066 8.0459 89.8968 8.13574 90.4437 8.13574C90.8343 8.13574 91.1917 8.09277 91.5159 8.00684C91.8441 7.9209 92.1253 7.79785 92.3597 7.6377C92.598 7.47363 92.7757 7.27441 92.8929 7.04004L92.9163 6.99902H93.7894L93.7659 7.0459C93.6605 7.33887 93.5042 7.59863 93.2972 7.8252C93.0902 8.04785 92.8421 8.2373 92.553 8.39355C92.264 8.5459 91.9398 8.66113 91.5804 8.73926C91.221 8.82129 90.8363 8.8623 90.4261 8.8623Z" fill="#EFEFEF"/>
<path d="M95.5971 8.7334V2.41113H96.4643V3.68262H96.5053C96.6616 3.24512 96.935 2.90527 97.3256 2.66309C97.7162 2.4209 98.1811 2.2998 98.7202 2.2998C98.8647 2.2998 99.0034 2.30762 99.1362 2.32324C99.269 2.33496 99.3862 2.35449 99.4877 2.38184V3.17285C99.3588 3.1416 99.2241 3.12012 99.0834 3.1084C98.9467 3.09277 98.8002 3.08496 98.644 3.08496C98.2065 3.08496 97.8237 3.17285 97.4955 3.34863C97.1674 3.52441 96.9135 3.77441 96.7338 4.09863C96.5541 4.42285 96.4643 4.80371 96.4643 5.24121V8.7334H95.5971Z" fill="#EFEFEF"/>
<path d="M103.762 8.8623C103.098 8.8623 102.524 8.79004 102.04 8.64551C101.559 8.50098 101.176 8.29199 100.891 8.01855C100.61 7.74121 100.436 7.40723 100.37 7.0166L100.364 6.9873H101.237L101.249 7.0166C101.35 7.3877 101.616 7.6748 102.045 7.87793C102.479 8.07715 103.059 8.17676 103.786 8.17676C104.243 8.17676 104.633 8.12988 104.958 8.03613C105.282 7.93848 105.532 7.80176 105.708 7.62598C105.883 7.44629 105.971 7.23535 105.971 6.99316V6.9873C105.971 6.68262 105.85 6.45215 105.608 6.2959C105.366 6.13574 104.96 6.02246 104.389 5.95605L102.737 5.79785C102.256 5.73926 101.858 5.6416 101.542 5.50488C101.225 5.36816 100.989 5.18848 100.833 4.96582C100.676 4.73926 100.598 4.46777 100.598 4.15137V4.14551C100.598 3.7666 100.717 3.43848 100.956 3.16113C101.194 2.88379 101.532 2.66895 101.969 2.5166C102.411 2.36426 102.928 2.28809 103.522 2.28809C104.139 2.28809 104.672 2.36035 105.122 2.50488C105.575 2.64551 105.934 2.85059 106.2 3.12012C106.469 3.38574 106.633 3.70605 106.692 4.08105L106.704 4.13965H105.866L105.86 4.10449C105.778 3.75293 105.532 3.47754 105.122 3.27832C104.711 3.0752 104.18 2.97363 103.528 2.97363C103.098 2.97363 102.729 3.02051 102.42 3.11426C102.116 3.2041 101.881 3.33496 101.717 3.50684C101.557 3.6748 101.477 3.87402 101.477 4.10449V4.11621C101.477 4.30371 101.528 4.46191 101.629 4.59082C101.735 4.71973 101.899 4.8252 102.122 4.90723C102.348 4.98535 102.641 5.0459 103.001 5.08887L104.647 5.25293C105.413 5.33887 105.971 5.51465 106.323 5.78027C106.674 6.0459 106.85 6.43066 106.85 6.93457V6.94043C106.85 7.33105 106.725 7.6709 106.475 7.95996C106.225 8.24902 105.87 8.47168 105.409 8.62793C104.948 8.78418 104.399 8.8623 103.762 8.8623Z" fill="#EFEFEF"/>
<path d="M108.506 8.7334V2.41113H109.373V8.7334H108.506ZM108.939 1.22754C108.779 1.22754 108.642 1.17285 108.529 1.06348C108.416 0.954102 108.359 0.821289 108.359 0.665039C108.359 0.508789 108.416 0.37793 108.529 0.272461C108.642 0.163086 108.779 0.108398 108.939 0.108398C109.107 0.108398 109.246 0.163086 109.355 0.272461C109.465 0.37793 109.519 0.508789 109.519 0.665039C109.519 0.821289 109.465 0.954102 109.355 1.06348C109.246 1.17285 109.107 1.22754 108.939 1.22754Z" fill="#EFEFEF"/>
<path d="M114.386 8.81543C113.647 8.81543 113.098 8.66113 112.739 8.35254C112.384 8.04004 112.206 7.55957 112.206 6.91113V3.1084H110.735V2.41113H112.206V0.741211H113.079V2.41113H115.352V3.1084H113.079V6.77637C113.079 7.24121 113.194 7.5791 113.425 7.79004C113.655 8.00098 114.022 8.10645 114.526 8.10645C114.663 8.10645 114.804 8.10059 114.948 8.08887C115.096 8.07324 115.231 8.05371 115.352 8.03027V8.72168C115.208 8.75293 115.054 8.77637 114.889 8.79199C114.725 8.80762 114.557 8.81543 114.386 8.81543Z" fill="#EFEFEF"/>
<path d="M117.851 10.8838C117.742 10.8838 117.631 10.8779 117.518 10.8662C117.408 10.8584 117.309 10.8447 117.219 10.8252V10.1162C117.301 10.1318 117.393 10.1436 117.494 10.1514C117.596 10.1631 117.695 10.1689 117.793 10.1689C118.16 10.1689 118.467 10.0947 118.713 9.94629C118.963 9.79785 119.187 9.53613 119.387 9.16113L119.574 8.79785L116.369 2.41113H117.307L120.172 8.24707L119.867 7.94824H120.277L119.967 8.24707L122.756 2.41113H123.687L120.43 9.03223C120.195 9.50098 119.959 9.87012 119.721 10.1396C119.486 10.4092 119.221 10.6006 118.924 10.7139C118.627 10.8271 118.269 10.8838 117.851 10.8838Z" fill="#EFEFEF"/>
<path d="M4.98047 22.8916C4.24219 22.8916 3.57227 22.7881 2.9707 22.5811C2.36914 22.3701 1.85156 22.0713 1.41797 21.6846C0.984375 21.2939 0.650391 20.8271 0.416016 20.2842C0.185547 19.7412 0.0703125 19.1377 0.0703125 18.4736V18.4619C0.0703125 17.5908 0.273438 16.8291 0.679688 16.1768C1.08594 15.5244 1.6582 15.0186 2.39648 14.6592C3.13477 14.2998 3.99609 14.1201 4.98047 14.1201C5.75781 14.1201 6.46094 14.2314 7.08984 14.4541C7.72266 14.6768 8.25195 14.9912 8.67773 15.3975C9.10742 15.7998 9.4043 16.2783 9.56836 16.833L9.58594 16.8857H8.67188L8.6543 16.8447C8.38867 16.2354 7.93359 15.7607 7.28906 15.4209C6.64844 15.0811 5.88086 14.9111 4.98633 14.9111C4.17773 14.9111 3.47266 15.0576 2.87109 15.3506C2.27344 15.6436 1.80859 16.0557 1.47656 16.5869C1.14453 17.1182 0.978516 17.7432 0.978516 18.4619V18.4736C0.978516 19.0205 1.07227 19.5166 1.25977 19.9619C1.45117 20.4072 1.72266 20.79 2.07422 21.1104C2.42969 21.4268 2.85352 21.6709 3.3457 21.8428C3.83789 22.0146 4.38477 22.1006 4.98633 22.1006C5.7168 22.1006 6.35547 21.9873 6.90234 21.7607C7.44922 21.5303 7.88086 21.2061 8.19727 20.7881C8.51758 20.3701 8.70117 19.8779 8.74805 19.3115L8.75391 19.2061H5.00977V18.4795H9.64453V19.0303C9.64453 19.6045 9.5332 20.1299 9.31055 20.6064C9.0918 21.0791 8.77539 21.4873 8.36133 21.8311C7.95117 22.1709 7.45898 22.4326 6.88477 22.6162C6.31445 22.7998 5.67969 22.8916 4.98047 22.8916Z" fill="#EFEFEF"/>
<path d="M11.5167 22.7334V13.9561H12.3839V22.7334H11.5167Z" fill="#EFEFEF"/>
<path d="M17.8655 22.8623C17.1311 22.8623 16.4827 22.7275 15.9202 22.458C15.3616 22.1885 14.926 21.8096 14.6135 21.3213C14.301 20.8291 14.1448 20.249 14.1448 19.5811V19.5635C14.1448 18.8955 14.301 18.3174 14.6135 17.8291C14.926 17.3369 15.3616 16.958 15.9202 16.6924C16.4827 16.4229 17.1311 16.2881 17.8655 16.2881C18.6038 16.2881 19.2522 16.4229 19.8108 16.6924C20.3694 16.958 20.8049 17.3369 21.1174 17.8291C21.4299 18.3174 21.5862 18.8955 21.5862 19.5635V19.5811C21.5862 20.249 21.4299 20.8291 21.1174 21.3213C20.8049 21.8096 20.3694 22.1885 19.8108 22.458C19.2522 22.7275 18.6038 22.8623 17.8655 22.8623ZM17.8655 22.124C18.428 22.124 18.9221 22.0225 19.3479 21.8193C19.7737 21.6123 20.1057 21.3193 20.344 20.9404C20.5823 20.5615 20.7014 20.1084 20.7014 19.5811V19.5635C20.7014 19.0361 20.5823 18.583 20.344 18.2041C20.1057 17.8252 19.7737 17.5342 19.3479 17.3311C18.9221 17.124 18.428 17.0205 17.8655 17.0205C17.3069 17.0205 16.8127 17.124 16.383 17.3311C15.9573 17.5342 15.6233 17.8252 15.3811 18.2041C15.1428 18.583 15.0237 19.0361 15.0237 19.5635V19.5811C15.0237 20.1084 15.1428 20.5615 15.3811 20.9404C15.6233 21.3193 15.9573 21.6123 16.383 21.8193C16.8127 22.0225 17.3069 22.124 17.8655 22.124Z" fill="#EFEFEF"/>
<path d="M27.2845 22.8564C26.8002 22.8564 26.3587 22.792 25.9603 22.6631C25.5658 22.5342 25.224 22.3525 24.9349 22.1182C24.6498 21.8799 24.4252 21.6045 24.2611 21.292H24.2259V22.7334H23.3587V13.9561H24.2259V17.8467H24.2611C24.4212 17.5342 24.6459 17.2627 24.9349 17.0322C25.224 16.7979 25.5677 16.6162 25.9662 16.4873C26.3646 16.3545 26.8041 16.2881 27.2845 16.2881C27.9955 16.2881 28.6107 16.4287 29.1302 16.71C29.6537 16.9873 30.058 17.3721 30.3431 17.8643C30.6283 18.3564 30.7709 18.9229 30.7709 19.5635V19.5811C30.7709 20.2178 30.6283 20.7842 30.3431 21.2803C30.058 21.7725 29.6537 22.1592 29.1302 22.4404C28.6107 22.7178 27.9955 22.8564 27.2845 22.8564ZM27.0677 22.124C27.6459 22.124 28.1459 22.0205 28.5677 21.8135C28.9896 21.6064 29.3138 21.3135 29.5404 20.9346C29.7709 20.5518 29.8861 20.1006 29.8861 19.5811V19.5635C29.8861 19.0439 29.7709 18.5947 29.5404 18.2158C29.3138 17.833 28.9896 17.5381 28.5677 17.3311C28.1459 17.124 27.6459 17.0205 27.0677 17.0205C26.4896 17.0205 25.9877 17.1279 25.5619 17.3428C25.1361 17.5576 24.806 17.8564 24.5716 18.2393C24.3373 18.6182 24.2201 19.0596 24.2201 19.5635V19.5811C24.2201 20.085 24.3373 20.5283 24.5716 20.9111C24.806 21.2939 25.1361 21.5928 25.5619 21.8076C25.9877 22.0186 26.4896 22.124 27.0677 22.124Z" fill="#EFEFEF"/>
<path d="M34.9048 22.8506C34.3384 22.8506 33.8423 22.7764 33.4165 22.6279C32.9946 22.4795 32.6645 22.2607 32.4263 21.9717C32.1919 21.6826 32.0747 21.3311 32.0747 20.917V20.9053C32.0747 20.542 32.1684 20.2295 32.3559 19.9678C32.5434 19.7061 32.8305 19.5029 33.2173 19.3584C33.604 19.21 34.0981 19.126 34.6997 19.1064L38.2798 19.0186V19.6572L34.7993 19.7568C34.1587 19.7725 33.6899 19.876 33.393 20.0674C33.1001 20.2588 32.9536 20.5303 32.9536 20.8818V20.8936C32.9536 21.2998 33.145 21.6104 33.5278 21.8252C33.9145 22.04 34.4184 22.1475 35.0395 22.1475C35.5981 22.1475 36.0884 22.0635 36.5102 21.8955C36.9321 21.7236 37.2602 21.4873 37.4946 21.1865C37.729 20.8857 37.8462 20.5361 37.8462 20.1377V18.7139C37.8462 18.1592 37.647 17.7373 37.2485 17.4482C36.8501 17.1592 36.2856 17.0146 35.5552 17.0146C34.9184 17.0146 34.3989 17.1221 33.9966 17.3369C33.5942 17.5479 33.3364 17.8428 33.2231 18.2217L33.2114 18.2627H32.3559L32.3618 18.2158C32.4399 17.8291 32.6196 17.4912 32.9009 17.2021C33.1821 16.9131 33.5493 16.6885 34.0024 16.5283C34.4555 16.3682 34.9751 16.2881 35.561 16.2881C36.2251 16.2881 36.7934 16.3818 37.2661 16.5693C37.7388 16.7568 38.0981 17.0283 38.3442 17.3838C38.5903 17.7393 38.7134 18.1709 38.7134 18.6787V22.7334H37.8462V21.4561H37.8052C37.6567 21.7412 37.4399 21.9893 37.1548 22.2002C36.8735 22.4111 36.5395 22.5732 36.1528 22.6865C35.77 22.7959 35.354 22.8506 34.9048 22.8506Z" fill="#EFEFEF"/>
<path d="M40.7672 22.7334V13.9561H41.6344V22.7334H40.7672Z" fill="#EFEFEF"/>
<path d="M47.7166 19.7627L47.6991 18.6143H47.9686L53.5995 14.2783H54.8709L49.9198 18.0635L49.7733 18.1631L47.7166 19.7627ZM47.037 22.7334V14.2783H47.9276V22.7334H47.037ZM53.9627 22.7334L49.3514 18.2686L50.0135 17.7061L55.1873 22.7334H53.9627Z" fill="#EFEFEF"/>
<path d="M59.4736 22.8623C58.7392 22.8623 58.0908 22.7275 57.5283 22.458C56.9697 22.1885 56.5341 21.8096 56.2216 21.3213C55.9091 20.8291 55.7529 20.249 55.7529 19.5811V19.5635C55.7529 18.8955 55.9091 18.3174 56.2216 17.8291C56.5341 17.3369 56.9697 16.958 57.5283 16.6924C58.0908 16.4229 58.7392 16.2881 59.4736 16.2881C60.2119 16.2881 60.8603 16.4229 61.4189 16.6924C61.9775 16.958 62.413 17.3369 62.7255 17.8291C63.038 18.3174 63.1943 18.8955 63.1943 19.5635V19.5811C63.1943 20.249 63.038 20.8291 62.7255 21.3213C62.413 21.8096 61.9775 22.1885 61.4189 22.458C60.8603 22.7275 60.2119 22.8623 59.4736 22.8623ZM59.4736 22.124C60.0361 22.124 60.5302 22.0225 60.956 21.8193C61.3818 21.6123 61.7138 21.3193 61.9521 20.9404C62.1904 20.5615 62.3095 20.1084 62.3095 19.5811V19.5635C62.3095 19.0361 62.1904 18.583 61.9521 18.2041C61.7138 17.8252 61.3818 17.5342 60.956 17.3311C60.5302 17.124 60.0361 17.0205 59.4736 17.0205C58.915 17.0205 58.4209 17.124 57.9912 17.3311C57.5654 17.5342 57.2314 17.8252 56.9892 18.2041C56.7509 18.583 56.6318 19.0361 56.6318 19.5635V19.5811C56.6318 20.1084 56.7509 20.5615 56.9892 20.9404C57.2314 21.3193 57.5654 21.6123 57.9912 21.8193C58.4209 22.0225 58.915 22.124 59.4736 22.124Z" fill="#EFEFEF"/>
<path d="M64.9024 22.7334V16.4111H65.7696V17.6826H65.8106C65.9669 17.2451 66.2403 16.9053 66.6309 16.6631C67.0216 16.4209 67.4864 16.2998 68.0255 16.2998C68.17 16.2998 68.3087 16.3076 68.4415 16.3232C68.5743 16.335 68.6915 16.3545 68.793 16.3818V17.1729C68.6641 17.1416 68.5294 17.1201 68.3887 17.1084C68.252 17.0928 68.1055 17.085 67.9493 17.085C67.5118 17.085 67.129 17.1729 66.8009 17.3486C66.4727 17.5244 66.2188 17.7744 66.0391 18.0986C65.8595 18.4229 65.7696 18.8037 65.7696 19.2412V22.7334H64.9024Z" fill="#EFEFEF"/>
<path d="M73.1203 22.8623C72.3469 22.8623 71.6828 22.7314 71.1281 22.4697C70.5773 22.208 70.1535 21.833 69.8566 21.3447C69.5598 20.8564 69.4113 20.2686 69.4113 19.5811V19.5752C69.4113 18.9072 69.5617 18.3271 69.8625 17.835C70.1633 17.3428 70.5852 16.9619 71.1281 16.6924C71.675 16.4189 72.3098 16.2842 73.0324 16.2881C73.7707 16.292 74.4055 16.4307 74.9367 16.7041C75.468 16.9736 75.8762 17.3506 76.1613 17.835C76.4465 18.3193 76.5891 18.8857 76.5891 19.5342V19.7861L69.8508 19.7803V19.1299H76.0734L75.7336 19.6689V19.4111C75.7336 18.9229 75.6242 18.499 75.4055 18.1396C75.1867 17.7803 74.8742 17.5029 74.468 17.3076C74.0656 17.1123 73.5891 17.0146 73.0383 17.0146C72.468 17.0146 71.9758 17.1123 71.5617 17.3076C71.1516 17.499 70.8352 17.7803 70.6125 18.1514C70.3898 18.5186 70.2785 18.9639 70.2785 19.4873V19.6396C70.2785 20.2061 70.4016 20.6748 70.6477 21.0459C70.8977 21.4131 71.2375 21.6865 71.6672 21.8662C72.1008 22.0459 72.591 22.1357 73.1379 22.1357C73.5285 22.1357 73.8859 22.0928 74.2102 22.0068C74.5383 21.9209 74.8195 21.7979 75.0539 21.6377C75.2922 21.4736 75.4699 21.2744 75.5871 21.04L75.6105 20.999H76.4836L76.4602 21.0459C76.3547 21.3389 76.1984 21.5986 75.9914 21.8252C75.7844 22.0479 75.5363 22.2373 75.2473 22.3936C74.9582 22.5459 74.634 22.6611 74.2746 22.7393C73.9152 22.8213 73.5305 22.8623 73.1203 22.8623Z" fill="#EFEFEF"/>
<path d="M80.7288 22.8506C80.1624 22.8506 79.6663 22.7764 79.2405 22.6279C78.8187 22.4795 78.4886 22.2607 78.2503 21.9717C78.0159 21.6826 77.8988 21.3311 77.8988 20.917V20.9053C77.8988 20.542 77.9925 20.2295 78.18 19.9678C78.3675 19.7061 78.6546 19.5029 79.0413 19.3584C79.428 19.21 79.9222 19.126 80.5238 19.1064L84.1038 19.0186V19.6572L80.6234 19.7568C79.9827 19.7725 79.514 19.876 79.2171 20.0674C78.9241 20.2588 78.7777 20.5303 78.7777 20.8818V20.8936C78.7777 21.2998 78.9691 21.6104 79.3519 21.8252C79.7386 22.04 80.2425 22.1475 80.8636 22.1475C81.4222 22.1475 81.9124 22.0635 82.3343 21.8955C82.7562 21.7236 83.0843 21.4873 83.3187 21.1865C83.553 20.8857 83.6702 20.5361 83.6702 20.1377V18.7139C83.6702 18.1592 83.471 17.7373 83.0726 17.4482C82.6741 17.1592 82.1097 17.0146 81.3792 17.0146C80.7425 17.0146 80.223 17.1221 79.8206 17.3369C79.4183 17.5479 79.1605 17.8428 79.0472 18.2217L79.0355 18.2627H78.18L78.1859 18.2158C78.264 17.8291 78.4437 17.4912 78.7249 17.2021C79.0062 16.9131 79.3734 16.6885 79.8265 16.5283C80.2796 16.3682 80.7991 16.2881 81.3851 16.2881C82.0491 16.2881 82.6175 16.3818 83.0902 16.5693C83.5628 16.7568 83.9222 17.0283 84.1683 17.3838C84.4144 17.7393 84.5374 18.1709 84.5374 18.6787V22.7334H83.6702V21.4561H83.6292C83.4808 21.7412 83.264 21.9893 82.9788 22.2002C82.6976 22.4111 82.3636 22.5732 81.9769 22.6865C81.5941 22.7959 81.178 22.8506 80.7288 22.8506Z" fill="#EFEFEF"/>
<path d="M86.5268 22.7334V16.4111H87.394V17.8877H87.435C87.6577 17.3877 88.0151 16.9951 88.5073 16.71C88.9995 16.4248 89.5834 16.2822 90.2592 16.2822C91.1967 16.2822 91.9233 16.54 92.4389 17.0557C92.9584 17.5713 93.2182 18.2959 93.2182 19.2295V22.7334H92.351V19.3701C92.351 18.6084 92.1537 18.0264 91.7592 17.624C91.3686 17.2217 90.7983 17.0205 90.0483 17.0205C89.517 17.0205 89.0522 17.126 88.6537 17.3369C88.2553 17.5479 87.9448 17.8428 87.7221 18.2217C87.5034 18.6006 87.394 19.0459 87.394 19.5576V22.7334H86.5268Z" fill="#EFEFEF"/>
<path d="M102.406 22.8916C101.539 22.8916 100.795 22.7979 100.174 22.6104C99.5524 22.4189 99.0641 22.1455 98.7087 21.79C98.3571 21.4307 98.1501 21.0029 98.0876 20.5068L98.0817 20.4365H98.9782L98.9899 20.501C99.0563 20.8408 99.2302 21.1318 99.5114 21.374C99.7966 21.6123 100.185 21.7959 100.677 21.9248C101.174 22.0498 101.767 22.1123 102.459 22.1123C103.072 22.1123 103.595 22.0439 104.029 21.9072C104.466 21.7705 104.8 21.5752 105.031 21.3213C105.265 21.0674 105.382 20.7686 105.382 20.4248V20.4189C105.382 19.9736 105.209 19.6357 104.861 19.4053C104.517 19.1748 103.935 19.0127 103.115 18.9189L101.181 18.7373C100.193 18.624 99.4645 18.3896 98.9958 18.0342C98.5309 17.6787 98.2985 17.1807 98.2985 16.54V16.5283C98.2985 16.0439 98.4509 15.6221 98.7555 15.2627C99.0602 14.8994 99.4919 14.6182 100.05 14.4189C100.613 14.2197 101.277 14.1201 102.043 14.1201C102.851 14.1201 103.549 14.2158 104.134 14.4072C104.72 14.5986 105.183 14.8721 105.523 15.2275C105.863 15.583 106.062 16.0029 106.121 16.4873L106.132 16.5459H105.236L105.224 16.4873C105.146 16.1514 104.976 15.8662 104.715 15.6318C104.457 15.3936 104.103 15.2119 103.654 15.0869C103.209 14.9619 102.668 14.8994 102.031 14.8994C101.441 14.8994 100.935 14.9639 100.513 15.0928C100.091 15.2217 99.7673 15.4072 99.5407 15.6494C99.318 15.8877 99.2067 16.1729 99.2067 16.5049V16.5107C99.2067 16.9287 99.3766 17.249 99.7165 17.4717C100.06 17.6943 100.613 17.8506 101.375 17.9404L103.308 18.1162C104.007 18.1982 104.576 18.3311 105.013 18.5146C105.451 18.6943 105.773 18.9365 105.98 19.2412C106.187 19.542 106.291 19.915 106.291 20.3604V20.3662C106.291 20.8936 106.136 21.3467 105.828 21.7256C105.523 22.1006 105.082 22.3896 104.504 22.5928C103.925 22.792 103.226 22.8916 102.406 22.8916Z" fill="#EFEFEF"/>
<path d="M111.081 22.8154C110.343 22.8154 109.794 22.6611 109.434 22.3525C109.079 22.04 108.901 21.5596 108.901 20.9111V17.1084H107.43V16.4111H108.901V14.7412H109.774V16.4111H112.048V17.1084H109.774V20.7764C109.774 21.2412 109.889 21.5791 110.12 21.79C110.35 22.001 110.718 22.1064 111.221 22.1064C111.358 22.1064 111.499 22.1006 111.643 22.0889C111.792 22.0732 111.927 22.0537 112.048 22.0303V22.7217C111.903 22.7529 111.749 22.7764 111.585 22.792C111.421 22.8076 111.253 22.8154 111.081 22.8154Z" fill="#EFEFEF"/>
<path d="M116.562 22.8564C115.953 22.8564 115.428 22.7412 114.986 22.5107C114.549 22.2764 114.213 21.9404 113.978 21.5029C113.744 21.0654 113.627 20.54 113.627 19.9268V16.4053H114.494V19.7744C114.494 20.5127 114.687 21.0889 115.074 21.5029C115.465 21.9131 116.029 22.1182 116.768 22.1182C117.143 22.1182 117.49 22.0615 117.81 21.9482C118.131 21.835 118.41 21.6709 118.648 21.4561C118.887 21.2412 119.072 20.9775 119.205 20.665C119.338 20.3525 119.404 19.9951 119.404 19.5928V16.4053H120.271V22.7334H119.404V21.2686H119.363C119.223 21.5811 119.018 21.8584 118.748 22.1006C118.482 22.3389 118.164 22.5244 117.793 22.6572C117.426 22.79 117.016 22.8564 116.562 22.8564Z" fill="#EFEFEF"/>
<path d="M125.466 22.8564C124.751 22.8564 124.132 22.7178 123.608 22.4404C123.085 22.1592 122.681 21.7725 122.396 21.2803C122.114 20.7842 121.974 20.2178 121.974 19.5811V19.5693C121.974 18.9287 122.114 18.3623 122.396 17.8701C122.681 17.3779 123.085 16.9912 123.608 16.71C124.132 16.4287 124.751 16.2881 125.466 16.2881C125.946 16.2881 126.384 16.3545 126.778 16.4873C127.177 16.6162 127.521 16.7979 127.81 17.0322C128.103 17.2627 128.327 17.5342 128.483 17.8467H128.524V13.9561H129.392V22.7334H128.524V21.292H128.483C128.323 21.6045 128.099 21.8799 127.81 22.1182C127.521 22.3525 127.179 22.5342 126.784 22.6631C126.39 22.792 125.95 22.8564 125.466 22.8564ZM125.683 22.124C126.257 22.124 126.757 22.0186 127.183 21.8076C127.612 21.5928 127.944 21.2939 128.179 20.9111C128.413 20.5283 128.53 20.085 128.53 19.5811V19.5635C128.53 19.0596 128.413 18.6182 128.179 18.2393C127.944 17.8564 127.612 17.5576 127.183 17.3428C126.757 17.1279 126.257 17.0205 125.683 17.0205C125.101 17.0205 124.599 17.124 124.177 17.3311C123.755 17.5381 123.429 17.833 123.198 18.2158C122.968 18.5947 122.853 19.0439 122.853 19.5635V19.5811C122.853 20.1006 122.968 20.5518 123.198 20.9346C123.429 21.3135 123.755 21.6064 124.177 21.8135C124.599 22.0205 125.101 22.124 125.683 22.124Z" fill="#EFEFEF"/>
<path d="M131.475 22.7334V16.4111H132.342V22.7334H131.475ZM131.908 15.2275C131.748 15.2275 131.611 15.1729 131.498 15.0635C131.385 14.9541 131.328 14.8213 131.328 14.665C131.328 14.5088 131.385 14.3779 131.498 14.2725C131.611 14.1631 131.748 14.1084 131.908 14.1084C132.076 14.1084 132.215 14.1631 132.324 14.2725C132.434 14.3779 132.488 14.5088 132.488 14.665C132.488 14.8213 132.434 14.9541 132.324 15.0635C132.215 15.1729 132.076 15.2275 131.908 15.2275Z" fill="#EFEFEF"/>
<path d="M137.736 22.8623C136.962 22.8623 136.298 22.7314 135.743 22.4697C135.193 22.208 134.769 21.833 134.472 21.3447C134.175 20.8564 134.027 20.2686 134.027 19.5811V19.5752C134.027 18.9072 134.177 18.3271 134.478 17.835C134.779 17.3428 135.2 16.9619 135.743 16.6924C136.29 16.4189 136.925 16.2842 137.648 16.2881C138.386 16.292 139.021 16.4307 139.552 16.7041C140.083 16.9736 140.491 17.3506 140.777 17.835C141.062 18.3193 141.204 18.8857 141.204 19.5342V19.7861L134.466 19.7803V19.1299H140.689L140.349 19.6689V19.4111C140.349 18.9229 140.24 18.499 140.021 18.1396C139.802 17.7803 139.49 17.5029 139.083 17.3076C138.681 17.1123 138.204 17.0146 137.654 17.0146C137.083 17.0146 136.591 17.1123 136.177 17.3076C135.767 17.499 135.45 17.7803 135.228 18.1514C135.005 18.5186 134.894 18.9639 134.894 19.4873V19.6396C134.894 20.2061 135.017 20.6748 135.263 21.0459C135.513 21.4131 135.853 21.6865 136.283 21.8662C136.716 22.0459 137.206 22.1357 137.753 22.1357C138.144 22.1357 138.501 22.0928 138.825 22.0068C139.154 21.9209 139.435 21.7979 139.669 21.6377C139.908 21.4736 140.085 21.2744 140.202 21.04L140.226 20.999H141.099L141.075 21.0459C140.97 21.3389 140.814 21.5986 140.607 21.8252C140.4 22.0479 140.152 22.2373 139.863 22.3936C139.574 22.5459 139.249 22.6611 138.89 22.7393C138.531 22.8213 138.146 22.8623 137.736 22.8623Z" fill="#EFEFEF"/>
<path d="M145.942 22.8623C145.278 22.8623 144.704 22.79 144.219 22.6455C143.739 22.501 143.356 22.292 143.071 22.0186C142.789 21.7412 142.616 21.4072 142.549 21.0166L142.543 20.9873H143.416L143.428 21.0166C143.53 21.3877 143.795 21.6748 144.225 21.8779C144.659 22.0771 145.239 22.1768 145.965 22.1768C146.422 22.1768 146.813 22.1299 147.137 22.0361C147.461 21.9385 147.711 21.8018 147.887 21.626C148.063 21.4463 148.151 21.2354 148.151 20.9932V20.9873C148.151 20.6826 148.03 20.4521 147.788 20.2959C147.545 20.1357 147.139 20.0225 146.569 19.9561L144.916 19.7979C144.436 19.7393 144.038 19.6416 143.721 19.5049C143.405 19.3682 143.168 19.1885 143.012 18.9658C142.856 18.7393 142.778 18.4678 142.778 18.1514V18.1455C142.778 17.7666 142.897 17.4385 143.135 17.1611C143.373 16.8838 143.711 16.6689 144.149 16.5166C144.59 16.3643 145.108 16.2881 145.702 16.2881C146.319 16.2881 146.852 16.3604 147.301 16.5049C147.754 16.6455 148.114 16.8506 148.379 17.1201C148.649 17.3857 148.813 17.7061 148.871 18.0811L148.883 18.1396H148.045L148.039 18.1045C147.957 17.7529 147.711 17.4775 147.301 17.2783C146.891 17.0752 146.36 16.9736 145.707 16.9736C145.278 16.9736 144.909 17.0205 144.6 17.1143C144.295 17.2041 144.061 17.335 143.897 17.5068C143.737 17.6748 143.657 17.874 143.657 18.1045V18.1162C143.657 18.3037 143.707 18.4619 143.809 18.5908C143.914 18.7197 144.079 18.8252 144.301 18.9072C144.528 18.9854 144.821 19.0459 145.18 19.0889L146.827 19.2529C147.592 19.3389 148.151 19.5146 148.502 19.7803C148.854 20.0459 149.03 20.4307 149.03 20.9346V20.9404C149.03 21.3311 148.905 21.6709 148.655 21.96C148.405 22.249 148.049 22.4717 147.588 22.6279C147.127 22.7842 146.579 22.8623 145.942 22.8623Z" fill="#EFEFEF"/>
<path d="M154.01 22.7334V14.2783H161.071V15.0576H154.901V18.1689H160.684V18.9307H154.901V22.7334H154.01Z" fill="#EFEFEF"/>
<path d="M165.849 22.8623C165.115 22.8623 164.467 22.7275 163.904 22.458C163.345 22.1885 162.91 21.8096 162.597 21.3213C162.285 20.8291 162.129 20.249 162.129 19.5811V19.5635C162.129 18.8955 162.285 18.3174 162.597 17.8291C162.91 17.3369 163.345 16.958 163.904 16.6924C164.467 16.4229 165.115 16.2881 165.849 16.2881C166.588 16.2881 167.236 16.4229 167.795 16.6924C168.353 16.958 168.789 17.3369 169.101 17.8291C169.414 18.3174 169.57 18.8955 169.57 19.5635V19.5811C169.57 20.249 169.414 20.8291 169.101 21.3213C168.789 21.8096 168.353 22.1885 167.795 22.458C167.236 22.7275 166.588 22.8623 165.849 22.8623ZM165.849 22.124C166.412 22.124 166.906 22.0225 167.332 21.8193C167.758 21.6123 168.09 21.3193 168.328 20.9404C168.566 20.5615 168.685 20.1084 168.685 19.5811V19.5635C168.685 19.0361 168.566 18.583 168.328 18.2041C168.09 17.8252 167.758 17.5342 167.332 17.3311C166.906 17.124 166.412 17.0205 165.849 17.0205C165.291 17.0205 164.797 17.124 164.367 17.3311C163.941 17.5342 163.607 17.8252 163.365 18.2041C163.127 18.583 163.008 19.0361 163.008 19.5635V19.5811C163.008 20.1084 163.127 20.5615 163.365 20.9404C163.607 21.3193 163.941 21.6123 164.367 21.8193C164.797 22.0225 165.291 22.124 165.849 22.124Z" fill="#EFEFEF"/>
<path d="M171.278 22.7334V16.4111H172.145V17.6826H172.186C172.343 17.2451 172.616 16.9053 173.007 16.6631C173.397 16.4209 173.862 16.2998 174.401 16.2998C174.546 16.2998 174.684 16.3076 174.817 16.3232C174.95 16.335 175.067 16.3545 175.169 16.3818V17.1729C175.04 17.1416 174.905 17.1201 174.765 17.1084C174.628 17.0928 174.481 17.085 174.325 17.085C173.888 17.085 173.505 17.1729 173.177 17.3486C172.849 17.5244 172.595 17.7744 172.415 18.0986C172.235 18.4229 172.145 18.8037 172.145 19.2412V22.7334H171.278Z" fill="#EFEFEF"/>
<path d="M179.373 22.8564C178.764 22.8564 178.238 22.7412 177.797 22.5107C177.359 22.2764 177.023 21.9404 176.789 21.5029C176.555 21.0654 176.438 20.54 176.438 19.9268V16.4053H177.305V19.7744C177.305 20.5127 177.498 21.0889 177.885 21.5029C178.275 21.9131 178.84 22.1182 179.578 22.1182C179.953 22.1182 180.301 22.0615 180.621 21.9482C180.941 21.835 181.221 21.6709 181.459 21.4561C181.697 21.2412 181.883 20.9775 182.016 20.665C182.148 20.3525 182.215 19.9951 182.215 19.5928V16.4053H183.082V22.7334H182.215V21.2686H182.174C182.033 21.5811 181.828 21.8584 181.559 22.1006C181.293 22.3389 180.975 22.5244 180.604 22.6572C180.236 22.79 179.826 22.8564 179.373 22.8564Z" fill="#EFEFEF"/>
<path d="M185.112 22.7334V16.4053H185.98V17.7939H186.021C186.216 17.3174 186.525 16.9463 186.946 16.6807C187.368 16.415 187.874 16.2822 188.464 16.2822C188.882 16.2822 189.253 16.3506 189.577 16.4873C189.905 16.6201 190.181 16.8115 190.403 17.0615C190.63 17.3076 190.8 17.5986 190.913 17.9346H190.948C191.085 17.583 191.28 17.2842 191.534 17.0381C191.792 16.792 192.095 16.6045 192.443 16.4756C192.79 16.3467 193.167 16.2822 193.573 16.2822C194.14 16.2822 194.62 16.3955 195.015 16.6221C195.413 16.8447 195.716 17.1631 195.923 17.5771C196.13 17.9912 196.234 18.4834 196.234 19.0537V22.7334H195.366V19.1943C195.366 18.7412 195.29 18.3525 195.138 18.0283C194.985 17.7041 194.759 17.4561 194.458 17.2842C194.161 17.1084 193.792 17.0205 193.351 17.0205C192.89 17.0205 192.491 17.1182 192.155 17.3135C191.819 17.5049 191.56 17.7725 191.376 18.1162C191.193 18.46 191.101 18.8584 191.101 19.3115V22.7334H190.239V19.1592C190.239 18.7217 190.161 18.3428 190.005 18.0225C189.853 17.7021 189.626 17.4561 189.325 17.2842C189.025 17.1084 188.655 17.0205 188.218 17.0205C187.761 17.0205 187.364 17.1201 187.028 17.3193C186.693 17.5186 186.433 17.7979 186.249 18.1572C186.069 18.5166 185.98 18.9326 185.98 19.4053V22.7334H185.112Z" fill="#EFEFEF"/>
</svg>
