<svg width="334" height="334" viewBox="0 0 334 334" fill="none" xmlns="http://www.w3.org/2000/svg">
<g filter="url(#filter0_ii_380_5412)">
<g filter="url(#filter1_f_380_5412)">
<mask id="mask0_380_5412" style="mask-type:alpha" maskUnits="userSpaceOnUse" x="17" y="17" width="300" height="300">
<circle cx="149.953" cy="149.953" r="149.953" transform="matrix(-1 0 0 1 316.906 17)" fill="#D9D9D9"/>
</mask>
<g mask="url(#mask0_380_5412)">
<g filter="url(#filter2_f_380_5412)">
<circle cx="64.2067" cy="64.2067" r="64.2067" transform="matrix(-1 0 0 1 377.473 175.121)" fill="#038DFE"/>
</g>
<g filter="url(#filter3_f_380_5412)">
<circle cx="161.39" cy="161.39" r="161.39" transform="matrix(-1 0 0 1 401.059 13.5127)" fill="#133DE7"/>
</g>
<g filter="url(#filter4_f_380_5412)">
<circle cx="137.804" cy="137.804" r="137.804" transform="matrix(-1 0 0 1 161.266 -92.8428)" fill="#5419EA"/>
</g>
<g filter="url(#filter5_f_380_5412)">
<circle cx="98.7123" cy="98.7123" r="98.7123" transform="matrix(-1 0 0 1 401.059 -53.751)" fill="#10D48D"/>
</g>
<g filter="url(#filter6_f_380_5412)">
<ellipse cx="141.703" cy="187.597" rx="141.703" ry="187.597" transform="matrix(-0.378775 0.925489 0.925489 0.378775 -80.2715 37.0986)" fill="#038DFE"/>
</g>
<g filter="url(#filter7_f_380_5412)">
<circle cx="77.7469" cy="77.7469" r="77.7469" transform="matrix(-1 0 0 1 228.094 -19.2451)" fill="#226ADF"/>
</g>
<g filter="url(#filter8_f_380_5412)">
<circle cx="52.1952" cy="52.1952" r="52.1952" transform="matrix(-1 0 0 1 15.8184 182.766)" fill="#10D48D"/>
</g>
<g filter="url(#filter9_f_380_5412)">
<circle cx="52.1952" cy="52.1952" r="52.1952" transform="matrix(-1 0 0 1 23.4609 -45.8887)" fill="#10D48D"/>
</g>
<g opacity="0.67" filter="url(#filter10_f_380_5412)">
<ellipse cx="86.8101" cy="58.9653" rx="86.8101" ry="58.9653" transform="matrix(-1 0 0 1 203.633 77.2832)" fill="#5419EA"/>
</g>
<g opacity="0.42" filter="url(#filter11_f_380_5412)">
<ellipse cx="35.3004" cy="46.7333" rx="35.3004" ry="46.7333" transform="matrix(-0.378775 0.925489 0.925489 0.378775 239.648 -5.4873)" fill="#038DFE"/>
</g>
<g opacity="0.2" filter="url(#filter12_f_380_5412)">
<circle cx="98.7123" cy="98.7123" r="98.7123" transform="matrix(-1 0 0 1 266.967 76.1904)" fill="white"/>
</g>
</g>
</g>
<g style="mix-blend-mode:plus-lighter" filter="url(#filter13_i_380_5412)">
<mask id="mask1_380_5412" style="mask-type:alpha" maskUnits="userSpaceOnUse" x="17" y="17" width="300" height="300">
<mask id="mask2_380_5412" style="mask-type:alpha" maskUnits="userSpaceOnUse" x="17" y="17" width="300" height="300">
<circle cx="149.953" cy="149.953" r="149.953" transform="matrix(-1 0 0 1 317 17.0947)" fill="#D9D9D9"/>
</mask>
<g mask="url(#mask2_380_5412)">
<circle cx="64.2067" cy="64.2067" r="64.2067" transform="matrix(-1 0 0 1 369.354 167.005)" fill="#038DFE"/>
<circle cx="161.39" cy="161.39" r="161.39" transform="matrix(-1 0 0 1 392.939 5.39648)" fill="#133DE7"/>
<circle cx="137.804" cy="137.804" r="137.804" transform="matrix(-1 0 0 1 153.148 -100.96)" fill="#5419EA"/>
<circle cx="98.7123" cy="98.7123" r="98.7123" transform="matrix(-1 0 0 1 392.939 -61.8682)" fill="#10D48D"/>
<ellipse cx="141.703" cy="187.597" rx="141.703" ry="187.597" transform="matrix(-0.378775 0.925489 0.925489 0.378775 -88.3887 28.9824)" fill="#038DFE"/>
<circle cx="77.7469" cy="77.7469" r="77.7469" transform="matrix(-1 0 0 1 219.975 -27.3623)" fill="#226ADF"/>
<circle cx="52.1952" cy="52.1952" r="52.1952" transform="matrix(-1 0 0 1 7.70117 174.648)" fill="#10D48D"/>
<circle cx="52.1952" cy="52.1952" r="52.1952" transform="matrix(-1 0 0 1 15.3438 -54.0059)" fill="#10D48D"/>
<ellipse opacity="0.67" cx="86.8101" cy="58.9653" rx="86.8101" ry="58.9653" transform="matrix(-1 0 0 1 195.516 69.166)" fill="#5419EA"/>
<ellipse opacity="0.42" cx="35.3004" cy="46.7333" rx="35.3004" ry="46.7333" transform="matrix(-0.378775 0.925489 0.925489 0.378775 231.529 -13.6035)" fill="#038DFE"/>
<circle opacity="0.2" cx="98.7123" cy="98.7123" r="98.7123" transform="matrix(-1 0 0 1 258.848 68.0742)" fill="white"/>
</g>
</mask>
<g mask="url(#mask1_380_5412)">
<g opacity="0.34" filter="url(#filter14_f_380_5412)">
<mask id="mask3_380_5412" style="mask-type:alpha" maskUnits="userSpaceOnUse" x="226" y="-131" width="278" height="278">
<circle cx="138.298" cy="138.298" r="138.298" transform="matrix(1 1.74846e-07 1.74846e-07 -1 226.787 146.244)" fill="#D9D9D9"/>
</mask>
<g mask="url(#mask3_380_5412)">
<g filter="url(#filter15_f_380_5412)">
<circle cx="59.2163" cy="59.2163" r="59.2163" transform="matrix(1 1.74846e-07 1.74846e-07 -1 170.928 0.412109)" fill="#038DFE"/>
</g>
<g filter="url(#filter16_f_380_5412)">
<circle cx="148.846" cy="148.846" r="148.846" transform="matrix(1 1.74846e-07 1.74846e-07 -1 149.176 149.46)" fill="#133DE7"/>
</g>
<g filter="url(#filter17_f_380_5412)">
<circle cx="91.04" cy="91.04" r="91.04" transform="matrix(1 1.74846e-07 1.74846e-07 -1 149.176 211.496)" fill="#26FFB0"/>
</g>
<g filter="url(#filter18_f_380_5412)">
<ellipse cx="130.689" cy="173.016" rx="130.689" ry="173.016" transform="matrix(0.378775 -0.925489 -0.925489 -0.378775 593.096 127.708)" fill="#038DFE"/>
</g>
<g filter="url(#filter19_f_380_5412)">
<circle cx="71.7041" cy="71.7041" r="71.7041" transform="matrix(1 1.74846e-07 1.74846e-07 -1 308.697 179.673)" fill="#226ADF"/>
</g>
<g opacity="0.67" filter="url(#filter20_f_380_5412)">
<ellipse cx="80.0629" cy="54.3823" rx="80.0629" ry="54.3823" transform="matrix(1 1.74846e-07 1.74846e-07 -1 331.256 90.6465)" fill="#5419EA"/>
</g>
<g opacity="0.42" filter="url(#filter21_f_380_5412)">
<ellipse cx="32.5567" cy="43.1011" rx="32.5567" ry="43.1011" transform="matrix(0.378775 -0.925489 -0.925489 -0.378775 298.041 166.983)" fill="#038DFE"/>
</g>
<g opacity="0.2" filter="url(#filter22_f_380_5412)">
<circle cx="91.04" cy="91.04" r="91.04" transform="matrix(1 1.74846e-07 1.74846e-07 -1 272.846 91.6543)" fill="white"/>
</g>
</g>
</g>
</g>
</g>
<g filter="url(#filter23_f_380_5412)">
<path d="M42.0006 128.5C36.5743 100.012 117.002 46.6254 129.501 56.0001C142 65.3748 112.5 74.4999 88.5002 94.5C64.5002 114.5 46.0006 149.5 42.0006 128.5Z" fill="white"/>
</g>
</g>
<defs>
<filter id="filter0_ii_380_5412" x="-4" y="1" width="321" height="316" filterUnits="userSpaceOnUse" color-interpolation-filters="sRGB">
<feFlood flood-opacity="0" result="BackgroundImageFix"/>
<feBlend mode="normal" in="SourceGraphic" in2="BackgroundImageFix" result="shape"/>
<feColorMatrix in="SourceAlpha" type="matrix" values="0 0 0 0 0 0 0 0 0 0 0 0 0 0 0 0 0 0 127 0" result="hardAlpha"/>
<feOffset/>
<feGaussianBlur stdDeviation="18.25"/>
<feComposite in2="hardAlpha" operator="arithmetic" k2="-1" k3="1"/>
<feColorMatrix type="matrix" values="0 0 0 0 0.958477 0 0 0 0 0.958477 0 0 0 0 0.958477 0 0 0 0.7 0"/>
<feBlend mode="normal" in2="shape" result="effect1_innerShadow_380_5412"/>
<feColorMatrix in="SourceAlpha" type="matrix" values="0 0 0 0 0 0 0 0 0 0 0 0 0 0 0 0 0 0 127 0" result="hardAlpha"/>
<feOffset dx="-23" dy="-16"/>
<feGaussianBlur stdDeviation="10.5"/>
<feComposite in2="hardAlpha" operator="arithmetic" k2="-1" k3="1"/>
<feColorMatrix type="matrix" values="0 0 0 0 1 0 0 0 0 1 0 0 0 0 1 0 0 0 0.25 0"/>
<feBlend mode="normal" in2="effect1_innerShadow_380_5412" result="effect2_innerShadow_380_5412"/>
</filter>
<filter id="filter1_f_380_5412" x="0.350149" y="0.350149" width="333.206" height="333.205" filterUnits="userSpaceOnUse" color-interpolation-filters="sRGB">
<feFlood flood-opacity="0" result="BackgroundImageFix"/>
<feBlend mode="normal" in="SourceGraphic" in2="BackgroundImageFix" result="shape"/>
<feGaussianBlur stdDeviation="8.32493" result="effect1_foregroundBlur_380_5412"/>
</filter>
<filter id="filter2_f_380_5412" x="207.502" y="133.564" width="211.527" height="211.526" filterUnits="userSpaceOnUse" color-interpolation-filters="sRGB">
<feFlood flood-opacity="0" result="BackgroundImageFix"/>
<feBlend mode="normal" in="SourceGraphic" in2="BackgroundImageFix" result="shape"/>
<feGaussianBlur stdDeviation="20.7783" result="effect1_foregroundBlur_380_5412"/>
</filter>
<filter id="filter3_f_380_5412" x="36.7207" y="-28.0439" width="405.894" height="405.893" filterUnits="userSpaceOnUse" color-interpolation-filters="sRGB">
<feFlood flood-opacity="0" result="BackgroundImageFix"/>
<feBlend mode="normal" in="SourceGraphic" in2="BackgroundImageFix" result="shape"/>
<feGaussianBlur stdDeviation="20.7783" result="effect1_foregroundBlur_380_5412"/>
</filter>
<filter id="filter4_f_380_5412" x="-155.898" y="-134.399" width="358.721" height="358.722" filterUnits="userSpaceOnUse" color-interpolation-filters="sRGB">
<feFlood flood-opacity="0" result="BackgroundImageFix"/>
<feBlend mode="normal" in="SourceGraphic" in2="BackgroundImageFix" result="shape"/>
<feGaussianBlur stdDeviation="20.7783" result="effect1_foregroundBlur_380_5412"/>
</filter>
<filter id="filter5_f_380_5412" x="162.078" y="-95.3076" width="280.537" height="280.538" filterUnits="userSpaceOnUse" color-interpolation-filters="sRGB">
<feFlood flood-opacity="0" result="BackgroundImageFix"/>
<feBlend mode="normal" in="SourceGraphic" in2="BackgroundImageFix" result="shape"/>
<feGaussianBlur stdDeviation="20.7783" result="effect1_foregroundBlur_380_5412"/>
</filter>
<filter id="filter6_f_380_5412" x="-183.658" y="48.5577" width="446.664" height="381.485" filterUnits="userSpaceOnUse" color-interpolation-filters="sRGB">
<feFlood flood-opacity="0" result="BackgroundImageFix"/>
<feBlend mode="normal" in="SourceGraphic" in2="BackgroundImageFix" result="shape"/>
<feGaussianBlur stdDeviation="20.7783" result="effect1_foregroundBlur_380_5412"/>
</filter>
<filter id="filter7_f_380_5412" x="31.043" y="-60.8017" width="238.607" height="238.607" filterUnits="userSpaceOnUse" color-interpolation-filters="sRGB">
<feFlood flood-opacity="0" result="BackgroundImageFix"/>
<feBlend mode="normal" in="SourceGraphic" in2="BackgroundImageFix" result="shape"/>
<feGaussianBlur stdDeviation="20.7783" result="effect1_foregroundBlur_380_5412"/>
</filter>
<filter id="filter8_f_380_5412" x="-130.129" y="141.209" width="187.504" height="187.504" filterUnits="userSpaceOnUse" color-interpolation-filters="sRGB">
<feFlood flood-opacity="0" result="BackgroundImageFix"/>
<feBlend mode="normal" in="SourceGraphic" in2="BackgroundImageFix" result="shape"/>
<feGaussianBlur stdDeviation="20.7783" result="effect1_foregroundBlur_380_5412"/>
</filter>
<filter id="filter9_f_380_5412" x="-122.486" y="-87.4453" width="187.504" height="187.504" filterUnits="userSpaceOnUse" color-interpolation-filters="sRGB">
<feFlood flood-opacity="0" result="BackgroundImageFix"/>
<feBlend mode="normal" in="SourceGraphic" in2="BackgroundImageFix" result="shape"/>
<feGaussianBlur stdDeviation="20.7783" result="effect1_foregroundBlur_380_5412"/>
</filter>
<filter id="filter10_f_380_5412" x="-11.5449" y="35.7266" width="256.734" height="201.044" filterUnits="userSpaceOnUse" color-interpolation-filters="sRGB">
<feFlood flood-opacity="0" result="BackgroundImageFix"/>
<feBlend mode="normal" in="SourceGraphic" in2="BackgroundImageFix" result="shape"/>
<feGaussianBlur stdDeviation="20.7783" result="effect1_foregroundBlur_380_5412"/>
</filter>
<filter id="filter11_f_380_5412" x="182.689" y="-33.8369" width="173.68" height="157.442" filterUnits="userSpaceOnUse" color-interpolation-filters="sRGB">
<feFlood flood-opacity="0" result="BackgroundImageFix"/>
<feBlend mode="normal" in="SourceGraphic" in2="BackgroundImageFix" result="shape"/>
<feGaussianBlur stdDeviation="20.7783" result="effect1_foregroundBlur_380_5412"/>
</filter>
<filter id="filter12_f_380_5412" x="27.9864" y="34.6338" width="280.537" height="280.538" filterUnits="userSpaceOnUse" color-interpolation-filters="sRGB">
<feFlood flood-opacity="0" result="BackgroundImageFix"/>
<feBlend mode="normal" in="SourceGraphic" in2="BackgroundImageFix" result="shape"/>
<feGaussianBlur stdDeviation="20.7783" result="effect1_foregroundBlur_380_5412"/>
</filter>
<filter id="filter13_i_380_5412" x="226.787" y="17.0947" width="90.2129" height="129.913" filterUnits="userSpaceOnUse" color-interpolation-filters="sRGB">
<feFlood flood-opacity="0" result="BackgroundImageFix"/>
<feBlend mode="normal" in="SourceGraphic" in2="BackgroundImageFix" result="shape"/>
<feColorMatrix in="SourceAlpha" type="matrix" values="0 0 0 0 0 0 0 0 0 0 0 0 0 0 0 0 0 0 127 0" result="hardAlpha"/>
<feOffset dy="0.763849"/>
<feGaussianBlur stdDeviation="0.381925"/>
<feComposite in2="hardAlpha" operator="arithmetic" k2="-1" k3="1"/>
<feColorMatrix type="matrix" values="0 0 0 0 0 0 0 0 0 0 0 0 0 0 0 0 0 0 0.25 0"/>
<feBlend mode="normal" in2="shape" result="effect1_innerShadow_380_5412"/>
</filter>
<filter id="filter14_f_380_5412" x="126.787" y="-230.352" width="476.596" height="476.596" filterUnits="userSpaceOnUse" color-interpolation-filters="sRGB">
<feFlood flood-opacity="0" result="BackgroundImageFix"/>
<feBlend mode="normal" in="SourceGraphic" in2="BackgroundImageFix" result="shape"/>
<feGaussianBlur stdDeviation="19.5" result="effect1_foregroundBlur_380_5412"/>
</filter>
<filter id="filter15_f_380_5412" x="132.601" y="-156.347" width="195.087" height="195.086" filterUnits="userSpaceOnUse" color-interpolation-filters="sRGB">
<feFlood flood-opacity="0" result="BackgroundImageFix"/>
<feBlend mode="normal" in="SourceGraphic" in2="BackgroundImageFix" result="shape"/>
<feGaussianBlur stdDeviation="19.1633" result="effect1_foregroundBlur_380_5412"/>
</filter>
<filter id="filter16_f_380_5412" x="110.849" y="-186.56" width="374.347" height="374.347" filterUnits="userSpaceOnUse" color-interpolation-filters="sRGB">
<feFlood flood-opacity="0" result="BackgroundImageFix"/>
<feBlend mode="normal" in="SourceGraphic" in2="BackgroundImageFix" result="shape"/>
<feGaussianBlur stdDeviation="19.1633" result="effect1_foregroundBlur_380_5412"/>
</filter>
<filter id="filter17_f_380_5412" x="110.849" y="-8.91065" width="258.733" height="258.733" filterUnits="userSpaceOnUse" color-interpolation-filters="sRGB">
<feFlood flood-opacity="0" result="BackgroundImageFix"/>
<feBlend mode="normal" in="SourceGraphic" in2="BackgroundImageFix" result="shape"/>
<feGaussianBlur stdDeviation="19.1633" result="effect1_foregroundBlur_380_5412"/>
</filter>
<filter id="filter18_f_380_5412" x="276.5" y="-234.696" width="411.946" height="351.836" filterUnits="userSpaceOnUse" color-interpolation-filters="sRGB">
<feFlood flood-opacity="0" result="BackgroundImageFix"/>
<feBlend mode="normal" in="SourceGraphic" in2="BackgroundImageFix" result="shape"/>
<feGaussianBlur stdDeviation="19.1633" result="effect1_foregroundBlur_380_5412"/>
</filter>
<filter id="filter19_f_380_5412" x="270.371" y="-2.06202" width="220.062" height="220.062" filterUnits="userSpaceOnUse" color-interpolation-filters="sRGB">
<feFlood flood-opacity="0" result="BackgroundImageFix"/>
<feBlend mode="normal" in="SourceGraphic" in2="BackgroundImageFix" result="shape"/>
<feGaussianBlur stdDeviation="19.1633" result="effect1_foregroundBlur_380_5412"/>
</filter>
<filter id="filter20_f_380_5412" x="292.929" y="-56.4448" width="236.778" height="185.418" filterUnits="userSpaceOnUse" color-interpolation-filters="sRGB">
<feFlood flood-opacity="0" result="BackgroundImageFix"/>
<feBlend mode="normal" in="SourceGraphic" in2="BackgroundImageFix" result="shape"/>
<feGaussianBlur stdDeviation="19.1633" result="effect1_foregroundBlur_380_5412"/>
</filter>
<filter id="filter21_f_380_5412" x="190.394" y="47.9243" width="160.179" height="145.205" filterUnits="userSpaceOnUse" color-interpolation-filters="sRGB">
<feFlood flood-opacity="0" result="BackgroundImageFix"/>
<feBlend mode="normal" in="SourceGraphic" in2="BackgroundImageFix" result="shape"/>
<feGaussianBlur stdDeviation="19.1633" result="effect1_foregroundBlur_380_5412"/>
</filter>
<filter id="filter22_f_380_5412" x="234.519" y="-128.752" width="258.733" height="258.733" filterUnits="userSpaceOnUse" color-interpolation-filters="sRGB">
<feFlood flood-opacity="0" result="BackgroundImageFix"/>
<feBlend mode="normal" in="SourceGraphic" in2="BackgroundImageFix" result="shape"/>
<feGaussianBlur stdDeviation="19.1633" result="effect1_foregroundBlur_380_5412"/>
</filter>
<filter id="filter23_f_380_5412" x="6.73828" y="19.9102" width="160.732" height="150.075" filterUnits="userSpaceOnUse" color-interpolation-filters="sRGB">
<feFlood flood-opacity="0" result="BackgroundImageFix"/>
<feBlend mode="normal" in="SourceGraphic" in2="BackgroundImageFix" result="shape"/>
<feGaussianBlur stdDeviation="17.5" result="effect1_foregroundBlur_380_5412"/>
</filter>
</defs>
</svg>
