<svg width="24" height="24" viewBox="0 0 24 24" fill="none" xmlns="http://www.w3.org/2000/svg">
<path d="M3.09961 5.75034C3.09961 5.25329 3.50255 4.85034 3.99961 4.85034H19.9995C20.4966 4.85034 20.8995 5.25329 20.8995 5.75034C20.8995 6.2474 20.4966 6.65034 19.9995 6.65034H3.99961C3.50255 6.65034 3.09961 6.2474 3.09961 5.75034Z" fill="white"/>
<path d="M3.09962 12.0003C3.09962 11.5033 3.50257 11.1003 3.99962 11.1003H19.9996C20.4966 11.1003 20.8996 11.5033 20.8996 12.0003C20.8996 12.4974 20.4966 12.9003 19.9996 12.9003H3.99962C3.50257 12.9003 3.09962 12.4974 3.09962 12.0003Z" fill="white"/>
<path d="M3.09961 18.2503C3.09961 17.7533 3.50255 17.3503 3.99961 17.3503H13.7496C14.2466 17.3503 14.6496 17.7533 14.6496 18.2503C14.6496 18.7474 14.2466 19.1503 13.7496 19.1503H3.99961C3.50255 19.1503 3.09961 18.7474 3.09961 18.2503Z" fill="white"/>
</svg>
